<svg xmlns="http://www.w3.org/2000/svg" xmlns:xlink="http://www.w3.org/1999/xlink" width="500" zoomAndPan="magnify" viewBox="0 0 375 374.999991" height="500" preserveAspectRatio="xMidYMid meet" version="1.0"><defs><g/><clipPath id="bbb93d9992"><path d="M 36 54 L 339.800781 54 L 339.800781 296 L 36 296 Z M 36 54 " clip-rule="nonzero"/></clipPath></defs><path fill="#000000" d="M 324.4375 193.082031 C 321.96875 191.777344 318.914062 192.726562 317.617188 195.191406 L 312.140625 205.578125 C 305.21875 218.703125 290.84375 227.09375 274.625 227.476562 C 271.835938 227.542969 269.628906 229.855469 269.695312 232.644531 C 269.757812 235.394531 272.003906 237.578125 274.738281 237.578125 C 274.777344 237.578125 274.820312 237.578125 274.859375 237.578125 C 294.738281 237.109375 312.449219 226.65625 321.074219 210.292969 L 326.546875 199.910156 C 327.847656 197.441406 326.902344 194.382812 324.4375 193.082031 Z M 324.4375 193.082031 " fill-opacity="1" fill-rule="nonzero"/><path fill="#000000" d="M 221.722656 270.828125 C 218.992188 270.246094 216.3125 271.992188 215.734375 274.722656 C 211.273438 295.828125 190.402344 311.144531 166.113281 311.144531 C 163.324219 311.144531 161.0625 313.40625 161.0625 316.195312 C 161.0625 318.988281 163.324219 321.25 166.113281 321.25 C 195.144531 321.25 220.167969 302.5625 225.617188 276.816406 C 226.195312 274.085938 224.453125 271.40625 221.722656 270.828125 Z M 221.722656 270.828125 " fill-opacity="1" fill-rule="nonzero"/><g clip-path="url(#bbb93d9992)"><path fill="#000000" d="M 334.753906 167.238281 L 321.800781 167.238281 C 310.871094 167.238281 300.945312 172.664062 296.515625 181.066406 L 289.808594 193.785156 C 287.148438 198.832031 280.574219 202.226562 273.453125 202.226562 C 265.574219 202.226562 258.382812 205.089844 253.28125 209.683594 C 252.640625 209.632812 251.976562 209.695312 251.324219 209.90625 C 246.773438 211.386719 241.398438 211.066406 235.71875 210.734375 C 230.523438 210.421875 225.300781 210.421875 220.105469 210.734375 C 214.421875 211.074219 209.054688 211.386719 204.496094 209.90625 C 199.738281 208.359375 195.582031 204.914062 191.183594 201.269531 C 189.21875 199.644531 187.265625 198.027344 185.253906 196.5625 C 183.214844 195.082031 181.054688 193.699219 178.886719 192.316406 C 174.074219 189.246094 169.53125 186.347656 166.625 182.355469 C 163.746094 178.394531 162.386719 173.160156 160.941406 167.617188 C 160.296875 165.140625 159.648438 162.660156 158.867188 160.257812 C 158.769531 159.945312 157.019531 155.164062 156.265625 153.257812 C 154.15625 147.945312 152.167969 142.925781 152.167969 137.808594 C 152.167969 132.6875 154.15625 127.667969 156.265625 122.355469 C 157.195312 120.003906 158.113281 117.679688 158.867188 115.355469 C 159.648438 112.953125 160.296875 110.472656 160.941406 107.996094 C 162.386719 102.453125 163.75 97.214844 166.625 93.257812 C 169.527344 89.269531 174.074219 86.367188 178.882812 83.300781 C 181.054688 81.917969 183.214844 80.535156 185.253906 79.050781 C 187.265625 77.585938 189.222656 75.96875 191.1875 74.339844 C 195.585938 70.695312 199.742188 67.253906 204.496094 65.707031 C 209.046875 64.222656 214.417969 64.542969 220.101562 64.882812 C 225.300781 65.195312 230.527344 65.195312 235.726562 64.882812 C 241.410156 64.550781 246.78125 64.230469 251.328125 65.707031 C 256.085938 67.253906 260.242188 70.695312 264.640625 74.339844 C 266.605469 75.96875 268.558594 77.585938 270.574219 79.050781 C 272.609375 80.53125 274.773438 81.914062 276.9375 83.300781 C 281.75 86.367188 286.296875 89.269531 289.199219 93.257812 C 292.082031 97.21875 293.445312 102.457031 294.886719 108.003906 C 295.53125 110.476562 296.179688 112.953125 296.957031 115.355469 C 297.710938 117.683594 298.632812 120.011719 299.5625 122.359375 C 301.667969 127.671875 303.660156 132.6875 303.660156 137.808594 C 303.660156 142.921875 301.671875 147.9375 299.394531 153.671875 C 298.367188 156.269531 299.722656 158.992188 302.3125 160.019531 C 304.90625 161.039062 307.921875 159.566406 308.953125 156.972656 C 311.207031 151.292969 313.757812 144.855469 313.757812 137.808594 C 313.757812 130.757812 311.203125 124.316406 308.949219 118.632812 C 308.101562 116.488281 307.253906 114.363281 306.5625 112.238281 C 305.84375 110.023438 305.253906 107.738281 304.660156 105.453125 C 303.042969 99.246094 301.371094 92.820312 297.363281 87.3125 C 293.339844 81.773438 287.761719 78.21875 282.367188 74.777344 C 280.375 73.507812 278.390625 72.242188 276.515625 70.878906 C 274.671875 69.535156 272.882812 68.046875 271.082031 66.554688 C 266.148438 62.46875 261.042969 58.238281 254.445312 56.09375 C 248.085938 54.027344 241.5 54.421875 235.128906 54.796875 C 230.324219 55.082031 225.5 55.082031 220.699219 54.796875 C 214.328125 54.421875 207.738281 54.027344 201.378906 56.09375 C 194.785156 58.238281 189.679688 62.46875 184.746094 66.554688 C 182.945312 68.046875 181.15625 69.535156 179.3125 70.878906 C 177.4375 72.242188 175.449219 73.507812 173.453125 74.78125 C 168.0625 78.21875 162.488281 81.773438 158.460938 87.3125 C 154.457031 92.816406 152.785156 99.238281 151.167969 105.449219 C 150.574219 107.730469 149.984375 110.019531 149.261719 112.234375 C 148.574219 114.359375 147.730469 116.480469 146.878906 118.625 C 144.621094 124.308594 142.066406 130.753906 142.066406 137.808594 C 142.066406 140.746094 142.570312 143.550781 143.25 146.265625 L 143.097656 146.226562 C 137.792969 144.902344 131.953125 146.152344 127.109375 149.671875 C 124.445312 151.609375 119.800781 153.367188 114.324219 154.769531 C 117.675781 149.890625 119.648438 143.992188 119.648438 137.640625 C 119.648438 120.921875 106.054688 107.324219 89.347656 107.324219 C 72.640625 107.324219 59.050781 120.921875 59.050781 137.640625 C 59.050781 149.527344 65.9375 159.808594 75.917969 164.773438 C 72.820312 168.328125 70.875 172.914062 70.875 177.988281 L 70.875 233.328125 L 42.730469 261.484375 C 36.007812 268.21875 35.078125 278.535156 39.84375 286.316406 C 38.066406 287.097656 36.816406 288.867188 36.816406 290.933594 C 36.816406 293.722656 39.078125 295.984375 41.867188 295.984375 L 166.113281 295.984375 C 183.285156 295.984375 197.921875 285.722656 200.917969 271.582031 L 202.824219 262.566406 C 204.179688 256.160156 211.648438 251.332031 220.199219 251.332031 L 226.859375 251.332031 C 240.078125 251.332031 251.507812 243.390625 254.03125 232.449219 L 256.125 223.382812 C 257.574219 217.082031 265.027344 212.332031 273.453125 212.332031 C 284.386719 212.332031 294.3125 206.902344 298.742188 198.503906 L 305.449219 185.78125 C 308.109375 180.734375 314.679688 177.34375 321.800781 177.34375 L 334.753906 177.34375 C 337.539062 177.34375 339.800781 175.082031 339.800781 172.289062 C 339.800781 169.5 337.539062 167.238281 334.753906 167.238281 Z M 69.148438 137.640625 C 69.148438 126.496094 78.210938 117.429688 89.347656 117.429688 C 100.484375 117.429688 109.546875 126.496094 109.546875 137.640625 C 109.546875 148.785156 100.484375 157.851562 89.347656 157.851562 C 78.210938 157.851562 69.148438 148.785156 69.148438 137.640625 Z M 49.871094 268.628906 L 79.496094 238.992188 C 80.441406 238.042969 80.976562 236.757812 80.976562 235.417969 L 80.976562 177.988281 C 80.976562 172.417969 85.503906 167.882812 91.089844 167.882812 C 104.792969 167.839844 124.152344 164.308594 133.046875 157.847656 C 134.46875 156.816406 137.347656 155.207031 140.648438 156.03125 L 142.15625 156.410156 C 146.535156 157.503906 148.753906 161.039062 149.367188 163.984375 C 150.109375 167.546875 148.878906 170.964844 146.078125 173.125 C 134.457031 182.097656 117.664062 185.699219 105.625 187.140625 C 103.085938 187.445312 101.175781 189.597656 101.175781 192.15625 L 101.175781 245.882812 L 64.15625 282.921875 C 60.222656 286.859375 53.816406 286.863281 49.871094 282.921875 C 45.9375 278.984375 45.9375 272.570312 49.871094 268.628906 Z M 143.25 275.773438 C 143.25 281.347656 138.71875 285.878906 133.148438 285.878906 C 127.578125 285.878906 123.050781 281.347656 123.050781 275.773438 L 123.050781 264.773438 C 123.050781 261.984375 120.789062 259.722656 118 259.722656 C 115.210938 259.722656 112.949219 261.984375 112.949219 264.773438 L 112.949219 275.773438 C 112.949219 279.472656 114.019531 282.894531 115.761719 285.878906 L 75.480469 285.878906 L 109.792969 251.546875 C 110.742188 250.601562 111.273438 249.316406 111.273438 247.976562 L 111.273438 222.679688 L 131.492188 231.988281 C 138.636719 235.273438 143.25 242.480469 143.25 250.347656 Z M 244.191406 230.171875 C 242.738281 236.472656 235.285156 241.226562 226.859375 241.226562 L 220.199219 241.226562 C 206.765625 241.226562 195.304688 249.320312 192.941406 260.472656 L 191.035156 269.492188 C 189.058594 278.835938 178.34375 285.878906 166.113281 285.878906 L 150.539062 285.878906 C 152.277344 282.894531 153.347656 279.472656 153.347656 275.773438 L 153.347656 250.347656 C 153.347656 238.546875 146.425781 227.734375 135.714844 222.804688 L 111.273438 211.554688 L 111.273438 196.570312 C 124.070312 194.636719 140.246094 190.390625 152.246094 181.128906 C 152.859375 180.65625 153.417969 180.132812 153.960938 179.601562 C 155.078125 182.632812 156.480469 185.582031 158.460938 188.300781 C 162.488281 193.839844 168.066406 197.398438 173.457031 200.835938 C 175.449219 202.109375 177.441406 203.371094 179.3125 204.734375 C 181.152344 206.074219 182.9375 207.5625 184.738281 209.050781 C 189.679688 213.144531 194.78125 217.375 201.378906 219.519531 C 207.742188 221.582031 214.328125 221.195312 220.703125 220.820312 C 225.5 220.535156 230.324219 220.535156 235.125 220.820312 C 237.644531 220.96875 240.199219 221.117188 242.761719 221.117188 C 243.949219 221.117188 245.136719 221.070312 246.320312 220.988281 C 246.3125 221.03125 246.289062 221.066406 246.28125 221.109375 Z M 244.191406 230.171875 " fill-opacity="1" fill-rule="nonzero"/></g><g fill="#ffffff" fill-opacity="1"><g transform="translate(364.903106, 371.349967)"><g><path d="M 6.46875 -10.40625 C 5.207031 -10.40625 4.210938 -9.984375 3.484375 -9.140625 C 2.765625 -8.304688 2.40625 -7.164062 2.40625 -5.71875 C 2.40625 -4.21875 2.753906 -3.0625 3.453125 -2.25 C 4.148438 -1.4375 5.148438 -1.03125 6.453125 -1.03125 C 7.242188 -1.03125 8.148438 -1.171875 9.171875 -1.453125 L 9.171875 -0.296875 C 8.378906 0.00390625 7.40625 0.15625 6.25 0.15625 C 4.5625 0.15625 3.257812 -0.351562 2.34375 -1.375 C 1.4375 -2.394531 0.984375 -3.847656 0.984375 -5.734375 C 0.984375 -6.910156 1.203125 -7.941406 1.640625 -8.828125 C 2.078125 -9.710938 2.710938 -10.394531 3.546875 -10.875 C 4.378906 -11.351562 5.359375 -11.59375 6.484375 -11.59375 C 7.679688 -11.59375 8.726562 -11.375 9.625 -10.9375 L 9.0625 -9.796875 C 8.195312 -10.203125 7.332031 -10.40625 6.46875 -10.40625 Z M 6.46875 -10.40625 "/></g></g></g></svg>