<svg xmlns="http://www.w3.org/2000/svg" xmlns:xlink="http://www.w3.org/1999/xlink" width="500" zoomAndPan="magnify" viewBox="0 0 375 374.999991" height="500" preserveAspectRatio="xMidYMid meet" version="1.0"><defs><g/><clipPath id="85f6d32e76"><path d="M 250.378906 210.070312 L 327.414062 210.070312 L 327.414062 287.105469 L 250.378906 287.105469 Z M 250.378906 210.070312 " clip-rule="nonzero"/></clipPath><clipPath id="469fc49a72"><path d="M 288.894531 210.070312 C 267.625 210.070312 250.378906 227.316406 250.378906 248.585938 C 250.378906 269.859375 267.625 287.105469 288.894531 287.105469 C 310.167969 287.105469 327.414062 269.859375 327.414062 248.585938 C 327.414062 227.316406 310.167969 210.070312 288.894531 210.070312 Z M 288.894531 210.070312 " clip-rule="nonzero"/></clipPath><clipPath id="4cbf5e4fc6"><path d="M 7.949219 8.101562 L 119.863281 8.101562 L 119.863281 120.015625 L 7.949219 120.015625 Z M 7.949219 8.101562 " clip-rule="nonzero"/></clipPath><clipPath id="58da41af33"><path d="M 63.90625 8.101562 C 33 8.101562 7.949219 33.15625 7.949219 64.058594 C 7.949219 94.960938 33 120.015625 63.90625 120.015625 C 94.808594 120.015625 119.863281 94.960938 119.863281 64.058594 C 119.863281 33.15625 94.808594 8.101562 63.90625 8.101562 Z M 63.90625 8.101562 " clip-rule="nonzero"/></clipPath><clipPath id="216652d924"><path d="M 272.625 232.320312 L 305.164062 232.320312 L 305.164062 264.855469 L 272.625 264.855469 Z M 272.625 232.320312 " clip-rule="nonzero"/></clipPath><clipPath id="10ba2fe90c"><path d="M 288.894531 232.320312 C 279.910156 232.320312 272.625 239.601562 272.625 248.585938 C 272.625 257.574219 279.910156 264.855469 288.894531 264.855469 C 297.878906 264.855469 305.164062 257.574219 305.164062 248.585938 C 305.164062 239.601562 297.878906 232.320312 288.894531 232.320312 Z M 288.894531 232.320312 " clip-rule="nonzero"/></clipPath></defs><rect x="-37.5" width="450" fill="#ffffff" y="-37.499999" height="449.999989" fill-opacity="1"/><rect x="-37.5" width="450" fill="#000000" y="-37.499999" height="449.999989" fill-opacity="1"/><g fill="#ffffff" fill-opacity="1"><g transform="translate(160.207697, 250.464327)"><g><path d="M 13.09375 -180.015625 L 65.25 -180.015625 C 90.269531 -180.015625 111.648438 -171.46875 129.390625 -154.375 C 147.140625 -137.28125 156.015625 -115.863281 156.015625 -90.125 C 156.015625 -64.226562 147.175781 -42.734375 129.5 -25.640625 C 111.820312 -8.546875 90.40625 0 65.25 0 L 13.09375 0 Z M 54.109375 -36.65625 L 60.4375 -36.65625 C 75.425781 -36.65625 87.679688 -41.707031 97.203125 -51.8125 C 106.734375 -61.925781 111.570312 -74.625 111.71875 -89.90625 C 111.71875 -105.175781 106.953125 -117.898438 97.421875 -128.078125 C 87.898438 -138.265625 75.570312 -143.359375 60.4375 -143.359375 L 54.109375 -143.359375 Z M 54.109375 -36.65625 "/></g></g></g><g fill="#ffffff" fill-opacity="1"><g transform="translate(63.846706, 250.464327)"><g><path d="M 54.109375 -72.21875 L 54.109375 0 L 13.09375 0 L 13.09375 -180.015625 L 54.109375 -180.015625 L 54.109375 -108.234375 L 112.15625 -108.234375 L 112.15625 -180.015625 L 153.171875 -180.015625 L 153.171875 0 L 112.15625 0 L 112.15625 -72.21875 Z M 54.109375 -72.21875 "/></g></g></g><g clip-path="url(#85f6d32e76)"><g clip-path="url(#469fc49a72)"><path fill="#000000" d="M 250.378906 210.070312 L 327.414062 210.070312 L 327.414062 287.105469 L 250.378906 287.105469 Z M 250.378906 210.070312 " fill-opacity="1" fill-rule="nonzero"/></g></g><g clip-path="url(#4cbf5e4fc6)"><g clip-path="url(#58da41af33)"><path fill="#000000" d="M 7.949219 8.101562 L 119.863281 8.101562 L 119.863281 120.015625 L 7.949219 120.015625 Z M 7.949219 8.101562 " fill-opacity="1" fill-rule="nonzero"/></g></g><g clip-path="url(#216652d924)"><g clip-path="url(#10ba2fe90c)"><path fill="#ffffff" d="M 272.625 232.320312 L 305.164062 232.320312 L 305.164062 264.855469 L 272.625 264.855469 Z M 272.625 232.320312 " fill-opacity="1" fill-rule="nonzero"/></g></g></svg>