<svg viewBox="0 0 512 512" xmlns="http://www.w3.org/2000/svg"><path d="m494.07 281.6-25.18-78.08a11 11 0 0 0 -.61-2.1l-50.5-156.94a20.08 20.08 0 0 0 -19.17-13.82 19.77 19.77 0 0 0 -18.95 13.94l-48.14 149.55h-152l-48.18-149.56a19.76 19.76 0 0 0 -18.86-13.94h-.11a20.15 20.15 0 0 0 -19.12 14l-50.55 157.08c0 .14-.11.26-.16.4l-25.63 79.48a29.15 29.15 0 0 0 10.44 32.46l221.44 162.41a11.25 11.25 0 0 0 13.38-.07l221.48-162.34a29.13 29.13 0 0 0 10.42-32.47m-331-64.51 61.73 191.76-148.17-191.76m209.64 191.8 59.19-183.84 2.55-8h86.52l-134.06 173.39m98.33-331.13 43.37 134.83h-86.82m-31.19 22.86-43 133.58-25.66 79.56-68.56-213.14m-74.67-157.69 43.46 134.83h-86.73m-28.32 101.44a6.19 6.19 0 0 1 -2.21-6.9l19-59 139.61 180.59m273.26-114.69-156.42 114.64.52-.69 139.06-179.89 19 59a6.2 6.2 0 0 1 -2.19 6.92"/></svg>