<svg xmlns="http://www.w3.org/2000/svg" xmlns:xlink="http://www.w3.org/1999/xlink" width="500" zoomAndPan="magnify" viewBox="0 0 375 374.999991" height="500" preserveAspectRatio="xMidYMid meet" version="1.0"><defs><g/><clipPath id="4c63915337"><path d="M 193 37.5 L 337.875 37.5 L 337.875 182 L 193 182 Z M 193 37.5 " clip-rule="nonzero"/></clipPath><clipPath id="8e5d5d07c6"><path d="M 41.625 164 L 236 164 L 236 267 L 41.625 267 Z M 41.625 164 " clip-rule="nonzero"/></clipPath><clipPath id="1287b081c7"><path d="M 60 280 L 118 280 L 118 337.5 L 60 337.5 Z M 60 280 " clip-rule="nonzero"/></clipPath><clipPath id="5a111669b7"><path d="M 156 280 L 214 280 L 214 337.5 L 156 337.5 Z M 156 280 " clip-rule="nonzero"/></clipPath></defs><path fill="#000000" d="M 265.621094 144.835938 C 246.25 144.835938 230.492188 129.097656 230.492188 109.75 C 230.492188 90.40625 246.25 74.664062 265.621094 74.664062 C 284.992188 74.664062 300.75 90.40625 300.75 109.75 C 300.75 129.097656 284.992188 144.835938 265.621094 144.835938 Z M 265.621094 80.523438 C 249.484375 80.523438 236.355469 93.632812 236.355469 109.75 C 236.355469 125.867188 249.484375 138.980469 265.621094 138.980469 C 281.757812 138.980469 294.886719 125.867188 294.886719 109.75 C 294.886719 93.632812 281.757812 80.523438 265.621094 80.523438 Z M 265.621094 80.523438 " fill-opacity="1" fill-rule="evenodd"/><g clip-path="url(#4c63915337)"><path fill="#000000" d="M 258.3125 181.910156 C 256.894531 181.910156 255.679688 180.898438 255.425781 179.507812 L 252.363281 162.671875 C 247.136719 161.371094 242.160156 159.3125 237.53125 156.53125 L 223.441406 166.273438 C 222.277344 167.078125 220.703125 166.9375 219.699219 165.9375 L 209.363281 155.613281 C 208.363281 154.613281 208.21875 153.039062 209.027344 151.875 L 218.78125 137.804688 C 215.996094 133.183594 213.933594 128.214844 212.628906 122.992188 L 195.777344 119.929688 C 194.382812 119.679688 193.371094 118.464844 193.371094 117.050781 L 193.371094 102.453125 C 193.371094 101.035156 194.382812 99.824219 195.777344 99.570312 L 212.632812 96.511719 C 213.933594 91.289062 215.996094 86.320312 218.78125 81.699219 L 209.027344 67.625 C 208.21875 66.460938 208.359375 64.890625 209.363281 63.890625 L 219.699219 53.566406 C 220.703125 52.566406 222.277344 52.421875 223.441406 53.226562 L 237.53125 62.972656 C 242.160156 60.191406 247.136719 58.128906 252.363281 56.828125 L 255.425781 39.996094 C 255.679688 38.605469 256.894531 37.59375 258.308594 37.59375 L 272.929688 37.59375 C 274.34375 37.59375 275.558594 38.605469 275.8125 39.996094 L 278.875 56.828125 C 284.105469 58.128906 289.078125 60.191406 293.707031 62.972656 L 307.796875 53.226562 C 308.960938 52.421875 310.539062 52.5625 311.539062 53.566406 L 321.875 63.886719 C 322.878906 64.890625 323.019531 66.460938 322.210938 67.625 L 312.460938 81.695312 C 315.246094 86.316406 317.308594 91.285156 318.609375 96.511719 L 335.460938 99.570312 C 336.855469 99.824219 337.867188 101.035156 337.867188 102.449219 L 337.867188 117.050781 C 337.867188 118.464844 336.855469 119.675781 335.460938 119.929688 L 318.609375 122.992188 C 317.304688 128.210938 315.242188 133.179688 312.457031 137.804688 L 322.210938 151.875 C 323.019531 153.039062 322.878906 154.613281 321.875 155.613281 L 311.539062 165.9375 C 310.539062 166.9375 308.960938 167.078125 307.796875 166.273438 L 293.710938 156.53125 C 289.082031 159.3125 284.105469 161.371094 278.875 162.675781 L 275.8125 179.503906 C 275.558594 180.898438 274.34375 181.910156 272.929688 181.910156 L 258.308594 181.910156 Z M 237.449219 150.097656 C 238.007812 150.097656 238.5625 150.257812 239.050781 150.574219 C 244.097656 153.859375 249.636719 156.152344 255.507812 157.386719 C 256.671875 157.632812 257.574219 158.558594 257.785156 159.730469 L 260.757812 176.054688 L 270.484375 176.054688 L 273.453125 159.730469 C 273.667969 158.5625 274.570312 157.636719 275.734375 157.390625 C 281.609375 156.152344 287.148438 153.859375 292.191406 150.574219 C 293.191406 149.925781 294.480469 149.945312 295.460938 150.621094 L 309.125 160.070312 L 316.003906 153.199219 L 306.539062 139.554688 C 305.863281 138.574219 305.84375 137.285156 306.496094 136.289062 C 309.785156 131.246094 312.078125 125.71875 313.316406 119.851562 C 313.5625 118.6875 314.492188 117.789062 315.660156 117.578125 L 332.007812 114.605469 L 332.007812 104.894531 L 315.664062 101.925781 C 314.492188 101.714844 313.566406 100.816406 313.320312 99.652344 C 312.082031 93.78125 309.785156 88.253906 306.496094 83.214844 C 305.847656 82.214844 305.863281 80.925781 306.542969 79.949219 L 316.003906 66.300781 L 309.125 59.433594 L 295.460938 68.882812 C 294.480469 69.558594 293.191406 69.578125 292.191406 68.929688 C 287.144531 65.644531 281.609375 63.351562 275.734375 62.113281 C 274.570312 61.867188 273.667969 60.941406 273.457031 59.773438 L 270.484375 43.445312 L 260.757812 43.445312 L 257.785156 59.773438 C 257.574219 60.941406 256.671875 61.867188 255.507812 62.113281 C 249.636719 63.351562 244.097656 65.644531 239.050781 68.929688 C 238.054688 69.578125 236.761719 69.558594 235.78125 68.882812 L 222.117188 59.433594 L 215.238281 66.300781 L 224.699219 79.949219 C 225.378906 80.929688 225.394531 82.21875 224.746094 83.214844 C 221.457031 88.257812 219.160156 93.785156 217.921875 99.652344 C 217.675781 100.816406 216.75 101.714844 215.578125 101.925781 L 199.234375 104.894531 L 199.234375 114.605469 L 215.578125 117.574219 C 216.75 117.789062 217.675781 118.6875 217.921875 119.851562 C 219.160156 125.71875 221.457031 131.25 224.746094 136.289062 C 225.394531 137.285156 225.378906 138.578125 224.699219 139.554688 L 215.238281 153.203125 L 222.117188 160.070312 L 235.78125 150.621094 C 236.28125 150.273438 236.867188 150.097656 237.449219 150.097656 Z M 237.449219 150.097656 " fill-opacity="1" fill-rule="evenodd"/></g><g clip-path="url(#8e5d5d07c6)"><path fill="#000000" d="M 232.625 266.15625 L 44.554688 266.15625 C 42.933594 266.15625 41.621094 264.84375 41.621094 263.226562 L 41.621094 208.757812 C 41.621094 199.703125 52.804688 190.5 75.804688 180.625 C 93.25 173.132812 113.078125 167.199219 121.546875 164.664062 L 122.425781 164.402344 C 123.976562 163.9375 125.609375 164.816406 126.074219 166.363281 C 126.539062 167.914062 125.660156 169.546875 124.109375 170.011719 L 123.226562 170.273438 C 114.855469 172.777344 95.253906 178.644531 78.121094 186.003906 C 51.464844 197.449219 47.484375 205.171875 47.484375 208.757812 L 47.484375 260.296875 L 229.691406 260.296875 L 229.691406 208.757812 C 229.691406 205.171875 225.714844 197.449219 199.058594 186.003906 C 181.921875 178.644531 162.320312 172.777344 153.949219 170.273438 L 153.070312 170.011719 C 151.519531 169.546875 150.636719 167.914062 151.101562 166.363281 C 151.570312 164.816406 153.203125 163.9375 154.753906 164.402344 L 155.632812 164.664062 C 164.101562 167.199219 183.929688 173.132812 201.375 180.625 C 224.375 190.5 235.558594 199.703125 235.558594 208.757812 L 235.558594 263.226562 C 235.558594 264.84375 234.242188 266.15625 232.625 266.15625 Z M 232.625 266.15625 " fill-opacity="1" fill-rule="evenodd"/></g><path fill="#000000" d="M 138.589844 156.421875 C 126.664062 156.421875 115.488281 150.886719 107.117188 140.835938 C 98.875 130.941406 94.332031 117.816406 94.332031 103.878906 C 94.332031 89.945312 98.875 76.820312 107.117188 66.925781 C 115.488281 56.875 126.664062 51.339844 138.589844 51.339844 C 150.511719 51.339844 161.691406 56.875 170.0625 66.925781 C 178.304688 76.820312 182.84375 89.945312 182.84375 103.878906 C 182.84375 117.816406 178.304688 130.941406 170.0625 140.835938 C 161.691406 150.886719 150.515625 156.421875 138.589844 156.421875 Z M 138.589844 57.195312 C 117.417969 57.195312 100.195312 78.136719 100.195312 103.878906 C 100.195312 129.625 117.417969 150.566406 138.589844 150.566406 C 159.757812 150.566406 176.980469 129.625 176.980469 103.878906 C 176.980469 78.136719 159.757812 57.195312 138.589844 57.195312 Z M 138.589844 57.195312 " fill-opacity="1" fill-rule="evenodd"/><path fill="#000000" d="M 119.191406 214.636719 C 119.070312 214.636719 118.949219 214.628906 118.828125 214.613281 C 117.902344 214.496094 117.085938 213.945312 116.628906 213.132812 L 96.171875 176.421875 C 95.382812 175.007812 95.890625 173.226562 97.308594 172.4375 C 98.722656 171.652344 100.507812 172.160156 101.292969 173.574219 L 119.808594 206.792969 L 134.886719 190.859375 L 120.792969 168.78125 C 119.925781 167.417969 120.324219 165.605469 121.691406 164.738281 C 123.054688 163.867188 124.867188 164.269531 125.738281 165.632812 L 141.058594 189.640625 C 141.78125 190.769531 141.640625 192.246094 140.71875 193.222656 L 121.320312 213.71875 C 120.765625 214.308594 119.992188 214.636719 119.191406 214.636719 Z M 119.191406 214.636719 " fill-opacity="1" fill-rule="evenodd"/><path fill="#000000" d="M 157.984375 214.636719 C 157.183594 214.636719 156.414062 214.308594 155.855469 213.71875 L 136.457031 193.222656 C 135.535156 192.246094 135.394531 190.769531 136.117188 189.636719 L 151.4375 165.632812 C 152.308594 164.269531 154.121094 163.867188 155.484375 164.738281 C 156.851562 165.605469 157.253906 167.417969 156.382812 168.78125 L 142.289062 190.859375 L 157.363281 206.789062 L 175.824219 173.558594 C 176.609375 172.144531 178.394531 171.632812 179.8125 172.417969 C 181.226562 173.203125 181.738281 174.984375 180.953125 176.398438 L 160.550781 213.128906 C 160.09375 213.945312 159.277344 214.496094 158.351562 214.613281 C 158.230469 214.628906 158.105469 214.636719 157.984375 214.636719 Z M 157.984375 214.636719 " fill-opacity="1" fill-rule="evenodd"/><path fill="#000000" d="M 157.753906 171.285156 C 156.136719 171.285156 154.824219 169.976562 154.824219 168.359375 L 154.824219 147.84375 C 154.824219 146.226562 156.136719 144.914062 157.753906 144.914062 C 159.375 144.914062 160.6875 146.226562 160.6875 147.84375 L 160.6875 168.359375 C 160.6875 169.976562 159.375 171.285156 157.753906 171.285156 Z M 118.648438 171.285156 C 117.03125 171.285156 115.71875 169.976562 115.71875 168.359375 L 115.71875 147.34375 C 115.71875 145.726562 117.03125 144.414062 118.648438 144.414062 C 120.269531 144.414062 121.582031 145.726562 121.582031 147.34375 L 121.582031 168.359375 C 121.582031 169.976562 120.269531 171.285156 118.648438 171.285156 Z M 118.648438 171.285156 " fill-opacity="1" fill-rule="evenodd"/><path fill="#000000" d="M 80.511719 266.15625 C 78.890625 266.15625 77.582031 264.84375 77.582031 263.226562 L 77.582031 228.269531 C 77.582031 226.652344 78.890625 225.34375 80.511719 225.34375 C 82.132812 225.34375 83.441406 226.652344 83.441406 228.269531 L 83.441406 263.226562 C 83.441406 264.84375 82.128906 266.15625 80.511719 266.15625 Z M 80.511719 266.15625 " fill-opacity="1" fill-rule="evenodd"/><path fill="#000000" d="M 196.664062 266.15625 C 195.046875 266.15625 193.734375 264.84375 193.734375 263.226562 L 193.734375 228.269531 C 193.734375 226.652344 195.046875 225.34375 196.664062 225.34375 C 198.285156 225.34375 199.597656 226.652344 199.597656 228.269531 L 199.597656 263.226562 C 199.597656 264.84375 198.285156 266.15625 196.664062 266.15625 Z M 196.664062 266.15625 " fill-opacity="1" fill-rule="evenodd"/><path fill="#000000" d="M 138.589844 266.15625 C 136.96875 266.15625 135.65625 264.84375 135.65625 263.226562 L 135.65625 191.210938 C 135.65625 189.59375 136.96875 188.285156 138.589844 188.285156 C 140.207031 188.285156 141.519531 189.59375 141.519531 191.210938 L 141.519531 263.226562 C 141.519531 264.84375 140.207031 266.152344 138.589844 266.152344 Z M 138.589844 266.15625 " fill-opacity="1" fill-rule="evenodd"/><g clip-path="url(#1287b081c7)"><path fill="#000000" d="M 88.820312 337.410156 C 73.113281 337.410156 60.335938 324.648438 60.335938 308.960938 C 60.335938 293.277344 73.113281 280.511719 88.820312 280.511719 C 104.527344 280.511719 117.304688 293.273438 117.304688 308.960938 C 117.304688 324.648438 104.527344 337.410156 88.820312 337.410156 Z M 88.820312 286.367188 C 76.347656 286.367188 66.199219 296.503906 66.199219 308.960938 C 66.199219 321.421875 76.347656 331.554688 88.820312 331.554688 C 101.292969 331.554688 111.441406 321.421875 111.441406 308.960938 C 111.441406 296.503906 101.292969 286.367188 88.820312 286.367188 Z M 88.820312 286.367188 " fill-opacity="1" fill-rule="evenodd"/></g><path fill="#000000" d="M 89.0625 320.578125 C 88.3125 320.578125 87.5625 320.292969 86.992188 319.71875 L 75.40625 308.152344 C 74.261719 307.007812 74.261719 305.152344 75.40625 304.011719 C 76.550781 302.867188 78.40625 302.867188 79.550781 304.011719 L 89.0625 313.511719 L 115.738281 286.871094 C 116.882812 285.726562 118.738281 285.726562 119.882812 286.871094 C 121.027344 288.015625 121.027344 289.867188 119.882812 291.011719 L 91.136719 319.722656 C 90.5625 320.292969 89.8125 320.578125 89.0625 320.578125 Z M 89.0625 320.578125 " fill-opacity="1" fill-rule="evenodd"/><g clip-path="url(#5a111669b7)"><path fill="#000000" d="M 184.921875 337.410156 C 169.214844 337.410156 156.4375 324.648438 156.4375 308.960938 C 156.4375 293.277344 169.214844 280.511719 184.921875 280.511719 C 200.628906 280.511719 213.40625 293.273438 213.40625 308.960938 C 213.40625 324.648438 200.628906 337.410156 184.921875 337.410156 Z M 184.921875 286.367188 C 172.449219 286.367188 162.300781 296.503906 162.300781 308.960938 C 162.300781 321.421875 172.449219 331.554688 184.921875 331.554688 C 197.394531 331.554688 207.542969 321.421875 207.542969 308.960938 C 207.542969 296.503906 197.394531 286.367188 184.921875 286.367188 Z M 184.921875 286.367188 " fill-opacity="1" fill-rule="evenodd"/></g><path fill="#000000" d="M 185.164062 320.578125 C 184.414062 320.578125 183.664062 320.292969 183.09375 319.71875 L 171.507812 308.152344 C 170.363281 307.007812 170.363281 305.152344 171.507812 304.011719 C 172.652344 302.867188 174.507812 302.867188 175.652344 304.011719 L 185.164062 313.511719 L 211.839844 286.871094 C 212.984375 285.726562 214.839844 285.726562 215.984375 286.871094 C 217.128906 288.015625 217.128906 289.867188 215.984375 291.011719 L 187.238281 319.722656 C 186.664062 320.292969 185.914062 320.578125 185.164062 320.578125 Z M 185.164062 320.578125 " fill-opacity="1" fill-rule="evenodd"/><g fill="#000000" fill-opacity="1"><g transform="translate(364.903106, 371.349967)"><g><path d="M 6.46875 -10.40625 C 5.207031 -10.40625 4.210938 -9.984375 3.484375 -9.140625 C 2.765625 -8.304688 2.40625 -7.164062 2.40625 -5.71875 C 2.40625 -4.21875 2.753906 -3.0625 3.453125 -2.25 C 4.148438 -1.4375 5.148438 -1.03125 6.453125 -1.03125 C 7.242188 -1.03125 8.148438 -1.171875 9.171875 -1.453125 L 9.171875 -0.296875 C 8.378906 0.00390625 7.40625 0.15625 6.25 0.15625 C 4.5625 0.15625 3.257812 -0.351562 2.34375 -1.375 C 1.4375 -2.394531 0.984375 -3.847656 0.984375 -5.734375 C 0.984375 -6.910156 1.203125 -7.941406 1.640625 -8.828125 C 2.078125 -9.710938 2.710938 -10.394531 3.546875 -10.875 C 4.378906 -11.351562 5.359375 -11.59375 6.484375 -11.59375 C 7.679688 -11.59375 8.726562 -11.375 9.625 -10.9375 L 9.0625 -9.796875 C 8.195312 -10.203125 7.332031 -10.40625 6.46875 -10.40625 Z M 6.46875 -10.40625 "/></g></g></g></svg>