<svg xmlns="http://www.w3.org/2000/svg" xmlns:xlink="http://www.w3.org/1999/xlink" width="500" zoomAndPan="magnify" viewBox="0 0 375 374.999991" height="500" preserveAspectRatio="xMidYMid meet" version="1.0"><defs><clipPath id="edb4b8c0c3"><path d="M 137 277 L 219 277 L 219 340.804688 L 137 340.804688 Z M 137 277 " clip-rule="nonzero"/></clipPath><clipPath id="f6663b4aeb"><path d="M 60.558594 57 L 182 57 L 182 303 L 60.558594 303 Z M 60.558594 57 " clip-rule="nonzero"/></clipPath><clipPath id="8cabf89a78"><path d="M 191 34.054688 L 198 34.054688 L 198 66 L 191 66 Z M 191 34.054688 " clip-rule="nonzero"/></clipPath><clipPath id="48c5978149"><path d="M 283 177 L 314.808594 177 L 314.808594 184 L 283 184 Z M 283 177 " clip-rule="nonzero"/></clipPath></defs><path fill="#ffffff" d="M 239.34375 103.929688 C 239.34375 103.929688 234.492188 100.003906 230.132812 97.140625 C 211.980469 85.160156 195.003906 81.097656 179.90625 81.386719 C 179.371094 81.371094 178.824219 81.386719 178.289062 81.386719 L 178.289062 315.566406 L 202.753906 315.566406 C 208.121094 287.570312 221.421875 269.636719 228.011719 262.175781 C 229.214844 260.945312 230.496094 259.621094 231.824219 258.203125 C 260.269531 227.984375 303.617188 159.875 239.34375 103.929688 " fill-opacity="1" fill-rule="nonzero"/><path stroke-linecap="round" transform="matrix(0.152522, 0, 0, -0.152233, -136.577447, 511.002446)" fill="none" stroke-linejoin="round" d="M 2464.698768 2674.006929 C 2464.698768 2674.006929 2432.889867 2699.794865 2404.307956 2718.60338 C 2285.293493 2797.301489 2173.987951 2823.987512 2075.001314 2822.088699 C 2071.492603 2822.191338 2067.907059 2822.088699 2064.398347 2822.088699 L 2064.398347 1283.793411 L 2224.800237 1283.793411 C 2259.989794 1467.696035 2347.195356 1585.499433 2390.401166 1634.509341 C 2398.289363 1642.592127 2406.689782 1651.290744 2415.397532 1660.605193 C 2601.897063 1859.108151 2886.102678 2306.509596 2464.698768 2674.006929 Z M 2464.698768 2674.006929 " stroke="#040200" stroke-width="40" stroke-opacity="1" stroke-miterlimit="10"/><path stroke-linecap="round" transform="matrix(0.152522, 0, 0, -0.152233, -136.577447, 511.002446)" fill-opacity="1" fill="#ffffff" fill-rule="nonzero" stroke-linejoin="round" d="M 2179.110157 1482.399008 L 2179.110157 1907.399589 L 2314.310791 2017.787351 L 2064.398347 2017.787351 " stroke="#040200" stroke-width="40" stroke-opacity="1" stroke-miterlimit="10"/><path fill="#ffffff" d="M 214.984375 280.917969 L 140.433594 280.917969 L 140.433594 309.566406 L 145.007812 309.566406 L 145.007812 324.972656 L 149.324219 324.972656 L 149.324219 337.65625 L 206.09375 337.65625 L 206.09375 324.972656 L 210.425781 324.972656 L 210.425781 309.566406 L 214.984375 309.566406 L 214.984375 280.917969 " fill-opacity="1" fill-rule="nonzero"/><g clip-path="url(#edb4b8c0c3)"><path stroke-linecap="round" transform="matrix(0.152522, 0, 0, -0.152233, -136.577447, 511.002446)" fill="none" stroke-linejoin="round" d="M 2304.988376 1511.394399 L 1816.201842 1511.394399 L 1816.201842 1323.206615 L 1846.19236 1323.206615 L 1846.19236 1222.005003 L 1874.49255 1222.005003 L 1874.49255 1138.688159 L 2246.697669 1138.688159 L 2246.697669 1222.005003 L 2275.100302 1222.005003 L 2275.100302 1323.206615 L 2304.988376 1323.206615 Z M 2304.988376 1511.394399 " stroke="#040200" stroke-width="40" stroke-opacity="1" stroke-miterlimit="10"/></g><path fill="#ffffff" d="M 155.578125 60.878906 C 148.488281 60.878906 142.140625 63.847656 137.992188 68.507812 C 135.230469 67.714844 132.304688 67.257812 129.222656 67.257812 C 114.457031 67.257812 102.5 77.183594 102.5 89.40625 C 102.5 89.605469 102.53125 89.804688 102.53125 90 C 94.632812 93.351562 89.230469 100.15625 89.230469 107.996094 C 89.230469 112.347656 90.894531 116.367188 93.714844 119.671875 C 86.210938 124.558594 81.363281 132.140625 81.363281 140.679688 C 81.363281 145.125 82.6875 149.296875 85.007812 152.980469 C 72.347656 158.292969 63.652344 169.132812 63.652344 181.691406 C 63.652344 193.902344 71.875 204.542969 83.984375 209.976562 C 82.308594 213.21875 81.363281 216.796875 81.363281 220.542969 C 81.363281 228.121094 85.175781 234.941406 91.289062 239.800781 C 89.964844 242.296875 89.230469 245.035156 89.230469 247.929688 C 89.230469 256.390625 95.515625 263.636719 104.4375 266.652344 C 103.203125 269.210938 102.5 271.996094 102.5 274.917969 C 102.5 287.144531 114.457031 297.054688 129.222656 297.054688 C 133.570312 297.054688 137.65625 296.1875 141.289062 294.664062 C 145.191406 297.542969 150.164062 299.277344 155.578125 299.277344 C 168.117188 299.277344 178.289062 290.019531 178.289062 278.589844 L 178.289062 81.566406 C 178.289062 70.148438 168.117188 60.878906 155.578125 60.878906 " fill-opacity="1" fill-rule="nonzero"/><g clip-path="url(#f6663b4aeb)"><path stroke-linecap="round" transform="matrix(0.152522, 0, 0, -0.152233, -136.577447, 511.002446)" fill="none" stroke-linejoin="round" d="M 1915.495811 2956.801798 C 1869.011789 2956.801798 1827.393863 2937.300473 1800.194948 2906.688525 C 1782.087948 2911.897432 1762.905286 2914.899609 1742.698182 2914.899609 C 1645.888483 2914.899609 1567.493116 2849.698469 1567.493116 2769.409463 C 1567.493116 2768.100821 1567.698005 2766.79218 1567.698005 2765.509198 C 1515.912499 2743.493228 1480.492443 2698.794139 1480.492443 2647.295246 C 1480.492443 2618.71041 1491.402742 2592.306642 1509.893907 2570.598589 C 1460.695116 2538.498382 1428.911826 2488.693025 1428.911826 2432.601056 C 1428.911826 2403.400389 1437.593965 2375.995895 1452.806918 2351.798857 C 1369.801565 2316.901749 1312.791409 2245.696254 1312.791409 2163.200519 C 1312.791409 2082.988491 1366.70263 2013.091637 1446.096828 1977.399081 C 1435.109695 1956.101582 1428.911826 1932.597354 1428.911826 1907.989761 C 1428.911826 1858.210063 1453.908192 1813.408336 1493.989456 1781.487746 C 1485.307317 1765.091238 1480.492443 1747.103832 1480.492443 1728.09004 C 1480.492443 1672.511264 1521.700592 1624.912636 1580.196188 1605.103396 C 1572.103102 1588.296333 1567.493116 1570.001011 1567.493116 1550.807602 C 1567.493116 1470.492936 1645.888483 1405.394435 1742.698182 1405.394435 C 1771.20326 1405.394435 1797.992399 1411.090874 1821.810658 1421.098133 C 1847.396078 1402.18698 1879.998921 1390.794101 1915.495811 1390.794101 C 1997.707222 1390.794101 2064.398347 1451.607442 2064.398347 1526.687543 L 2064.398347 2820.908356 C 2064.398347 2895.911477 1997.707222 2956.801798 1915.495811 2956.801798 Z M 1915.495811 2956.801798 " stroke="#040200" stroke-width="40" stroke-opacity="1" stroke-miterlimit="10"/></g><path stroke-linecap="round" transform="matrix(0.152522, 0, 0, -0.152233, -136.577447, 511.002446)" fill-opacity="1" fill="#ffffff" fill-rule="nonzero" stroke-linejoin="round" d="M 1800.50228 2833.404599 C 1800.50228 2833.404599 1736.397868 2772.206363 1816.304286 2710.905488 " stroke="#040200" stroke-width="40" stroke-opacity="1" stroke-miterlimit="10"/><path stroke-linecap="round" transform="matrix(0.152522, 0, 0, -0.152233, -136.577447, 511.002446)" fill-opacity="1" fill="#ffffff" fill-rule="nonzero" stroke-linejoin="round" d="M 1793.408024 1560.404307 C 1793.408024 1560.404307 1735.988092 1493.791887 1821.989935 1439.804009 " stroke="#040200" stroke-width="40" stroke-opacity="1" stroke-miterlimit="10"/><path stroke-linecap="round" transform="matrix(0.152522, 0, 0, -0.152233, -136.577447, 511.002446)" fill-opacity="1" fill="#ffffff" fill-rule="nonzero" stroke-linejoin="round" d="M 1584.703729 2769.794357 C 1584.703729 2769.794357 1652.00952 2806.692916 1696.803214 2760.608207 " stroke="#040200" stroke-width="40" stroke-opacity="1" stroke-miterlimit="10"/><path stroke-linecap="round" transform="matrix(0.152522, 0, 0, -0.152233, -136.577447, 511.002446)" fill-opacity="1" fill="#ffffff" fill-rule="nonzero" stroke-linejoin="round" d="M 1550.410558 1805.607806 C 1565.188124 1831.395742 1594.512754 1857.388955 1652.291241 1861.597136 " stroke="#040200" stroke-width="40" stroke-opacity="1" stroke-miterlimit="10"/><path stroke-linecap="round" transform="matrix(0.152522, 0, 0, -0.152233, -136.577447, 511.002446)" fill-opacity="1" fill="#ffffff" fill-rule="nonzero" stroke-linejoin="round" d="M 1355.894775 2045.705037 C 1355.894775 2045.705037 1462.103722 1894.287514 1657.797613 2010.08946 " stroke="#040200" stroke-width="40" stroke-opacity="1" stroke-miterlimit="10"/><path stroke-linecap="round" transform="matrix(0.152522, 0, 0, -0.152233, -136.577447, 511.002446)" fill-opacity="1" fill="#ffffff" fill-rule="nonzero" stroke-linejoin="round" d="M 1579.709578 1497.307257 C 1579.709578 1497.307257 1518.90899 1619.190537 1688.607684 1708.588715 " stroke="#040200" stroke-width="40" stroke-opacity="1" stroke-miterlimit="10"/><path stroke-linecap="round" transform="matrix(0.152522, 0, 0, -0.152233, -136.577447, 511.002446)" fill-opacity="1" fill="#ffffff" fill-rule="nonzero" stroke-linejoin="round" d="M 1437.491521 2482.406413 C 1437.491521 2482.406413 1480.799775 2639.007183 1688.607684 2571.599315 " stroke="#040200" stroke-width="40" stroke-opacity="1" stroke-miterlimit="10"/><path stroke-linecap="round" transform="matrix(0.152522, 0, 0, -0.152233, -136.577447, 511.002446)" fill-opacity="1" fill="#ffffff" fill-rule="nonzero" stroke-linejoin="round" d="M 1488.892861 2317.491921 C 1488.892861 2317.491921 1544.289522 2258.295137 1635.208683 2289.394618 " stroke="#040200" stroke-width="40" stroke-opacity="1" stroke-miterlimit="10"/><g clip-path="url(#8cabf89a78)"><path stroke-linecap="round" transform="matrix(0.152522, 0, 0, -0.152233, -136.577447, 511.002446)" fill="none" stroke-linejoin="round" d="M 2167.892525 3113.299929 L 2167.892525 2945.511557 " stroke="#040200" stroke-width="40" stroke-opacity="1" stroke-miterlimit="10"/></g><g clip-path="url(#48c5978149)"><path stroke-linecap="round" transform="matrix(0.152522, 0, 0, -0.152233, -136.577447, 511.002446)" fill="none" stroke-linejoin="round" d="M 2939.194346 2173.797949 L 2771.288424 2173.797949 " stroke="#040200" stroke-width="40" stroke-opacity="1" stroke-miterlimit="10"/></g><path stroke-linecap="round" transform="matrix(0.152522, 0, 0, -0.152233, -136.577447, 511.002446)" fill-opacity="1" fill="#ffffff" fill-rule="nonzero" stroke-linejoin="round" d="M 2726.392286 2858.987258 L 2606.507049 2741.491777 " stroke="#040200" stroke-width="40" stroke-opacity="1" stroke-miterlimit="10"/><path stroke-linecap="round" transform="matrix(0.152522, 0, 0, -0.152233, -136.577447, 511.002446)" fill-opacity="1" fill="#ffffff" fill-rule="nonzero" stroke-linejoin="round" d="M 2519.711263 3041.093708 L 2432.300813 2897.81029 " stroke="#040200" stroke-width="40" stroke-opacity="1" stroke-miterlimit="10"/><path stroke-linecap="round" transform="matrix(0.152522, 0, 0, -0.152233, -136.577447, 511.002446)" fill-opacity="1" fill="#ffffff" fill-rule="nonzero" stroke-linejoin="round" d="M 2892.402992 2554.20208 L 2733.204821 2500.907012 " stroke="#040200" stroke-width="40" stroke-opacity="1" stroke-miterlimit="10"/><path stroke-linecap="round" transform="matrix(0.152522, 0, 0, -0.152233, -136.577447, 511.002446)" fill-opacity="1" fill="#ffffff" fill-rule="nonzero" stroke-linejoin="round" d="M 2743.398011 1569.000285 L 2623.589606 1686.598406 " stroke="#040200" stroke-width="40" stroke-opacity="1" stroke-miterlimit="10"/><path stroke-linecap="round" transform="matrix(0.152522, 0, 0, -0.152233, -136.577447, 511.002446)" fill-opacity="1" fill="#ffffff" fill-rule="nonzero" stroke-linejoin="round" d="M 2882.696411 1823.389935 L 2733.204821 1899.804336 " stroke="#040200" stroke-width="40" stroke-opacity="1" stroke-miterlimit="10"/><path fill="#ffffff" d="M 122.574219 205.027344 C 122.574219 208.5 119.75 211.316406 116.273438 211.316406 C 112.796875 211.316406 109.988281 208.5 109.988281 205.027344 C 109.988281 201.558594 112.796875 198.742188 116.273438 198.742188 C 119.75 198.742188 122.574219 201.558594 122.574219 205.027344 " fill-opacity="1" fill-rule="nonzero"/><path stroke-linecap="round" transform="matrix(0.152522, 0, 0, -0.152233, -136.577447, 511.002446)" fill="none" stroke-linejoin="round" d="M 1699.108207 2009.909842 C 1699.108207 1987.098424 1680.591431 1968.597825 1657.797613 1968.597825 C 1635.003795 1968.597825 1616.589464 1987.098424 1616.589464 2009.909842 C 1616.589464 2032.695601 1635.003795 2051.1962 1657.797613 2051.1962 C 1680.591431 2051.1962 1699.108207 2032.695601 1699.108207 2009.909842 Z M 1699.108207 2009.909842 " stroke="#040200" stroke-width="40" stroke-opacity="1" stroke-miterlimit="10"/><path fill="#ffffff" d="M 127.253906 119.945312 C 127.253906 123.417969 124.449219 126.234375 120.972656 126.234375 C 117.492188 126.234375 114.671875 123.417969 114.671875 119.945312 C 114.671875 116.476562 117.492188 113.671875 120.972656 113.671875 C 124.449219 113.671875 127.253906 116.476562 127.253906 119.945312 " fill-opacity="1" fill-rule="nonzero"/><path stroke-linecap="round" transform="matrix(0.152522, 0, 0, -0.152233, -136.577447, 511.002446)" fill="none" stroke-linejoin="round" d="M 1729.790222 2568.802414 C 1729.790222 2545.990996 1711.401502 2527.490397 1688.607684 2527.490397 C 1665.788255 2527.490397 1647.29709 2545.990996 1647.29709 2568.802414 C 1647.29709 2591.588172 1665.788255 2610.011792 1688.607684 2610.011792 C 1711.401502 2610.011792 1729.790222 2591.588172 1729.790222 2568.802414 Z M 1729.790222 2568.802414 " stroke="#040200" stroke-width="40" stroke-opacity="1" stroke-miterlimit="10"/><path fill="#ffffff" d="M 141.457031 274.234375 C 141.457031 276.882812 139.304688 279.03125 136.652344 279.03125 C 133.996094 279.03125 131.832031 276.882812 131.832031 274.234375 C 131.832031 271.585938 133.996094 269.4375 136.652344 269.4375 C 139.304688 269.4375 141.457031 271.585938 141.457031 274.234375 " fill-opacity="1" fill-rule="nonzero"/><path stroke-linecap="round" transform="matrix(0.152522, 0, 0, -0.152233, -136.577447, 511.002446)" fill="none" stroke-linejoin="round" d="M 1822.911932 1555.298039 C 1822.911932 1537.900804 1808.800254 1523.788004 1791.410364 1523.788004 C 1773.994862 1523.788004 1759.806351 1537.900804 1759.806351 1555.298039 C 1759.806351 1572.695273 1773.994862 1586.808074 1791.410364 1586.808074 C 1808.800254 1586.808074 1822.911932 1572.695273 1822.911932 1555.298039 Z M 1822.911932 1555.298039 " stroke="#040200" stroke-width="40" stroke-opacity="1" stroke-miterlimit="10"/><path stroke-linecap="round" transform="matrix(0.152522, 0, 0, -0.152233, -136.577447, 511.002446)" fill="none" stroke-linejoin="round" d="M 2064.398347 2317.491921 L 1886.888289 2317.491921 " stroke="#040200" stroke-width="40" stroke-opacity="1" stroke-miterlimit="10"/><path fill="#ffffff" d="M 154.390625 158.203125 C 154.390625 161.671875 151.582031 164.488281 148.089844 164.488281 C 144.628906 164.488281 141.804688 161.671875 141.804688 158.203125 C 141.804688 154.730469 144.628906 151.914062 148.089844 151.914062 C 151.582031 151.914062 154.390625 154.730469 154.390625 158.203125 " fill-opacity="1" fill-rule="nonzero"/><path stroke-linecap="round" transform="matrix(0.152522, 0, 0, -0.152233, -136.577447, 511.002446)" fill="none" stroke-linejoin="round" d="M 1907.710057 2317.491921 C 1907.710057 2294.706163 1889.295726 2276.205564 1866.399464 2276.205564 C 1843.70809 2276.205564 1825.191314 2294.706163 1825.191314 2317.491921 C 1825.191314 2340.303339 1843.70809 2358.803938 1866.399464 2358.803938 C 1889.295726 2358.803938 1907.710057 2340.303339 1907.710057 2317.491921 Z M 1907.710057 2317.491921 " stroke="#040200" stroke-width="40" stroke-opacity="1" stroke-miterlimit="10"/><path stroke-linecap="round" transform="matrix(0.152522, 0, 0, -0.152233, -136.577447, 511.002446)" fill="none" stroke-linejoin="round" d="M 2064.398347 1846.791525 L 1886.888289 1846.791525 " stroke="#040200" stroke-width="40" stroke-opacity="1" stroke-miterlimit="10"/><path fill="#ffffff" d="M 154.390625 229.859375 C 154.390625 233.328125 151.582031 236.128906 148.089844 236.128906 C 144.628906 236.128906 141.804688 233.328125 141.804688 229.859375 C 141.804688 226.386719 144.628906 223.570312 148.089844 223.570312 C 151.582031 223.570312 154.390625 226.386719 154.390625 229.859375 " fill-opacity="1" fill-rule="nonzero"/><path stroke-linecap="round" transform="matrix(0.152522, 0, 0, -0.152233, -136.577447, 511.002446)" fill="none" stroke-linejoin="round" d="M 1907.710057 1846.791525 C 1907.710057 1824.005766 1889.295726 1805.607806 1866.399464 1805.607806 C 1843.70809 1805.607806 1825.191314 1824.005766 1825.191314 1846.791525 C 1825.191314 1869.602943 1843.70809 1888.103542 1866.399464 1888.103542 C 1889.295726 1888.103542 1907.710057 1869.602943 1907.710057 1846.791525 Z M 1907.710057 1846.791525 " stroke="#040200" stroke-width="40" stroke-opacity="1" stroke-miterlimit="10"/></svg>