<svg width="390" height="844" viewBox="0 0 390 844" fill="none" xmlns="http://www.w3.org/2000/svg">
<g clip-path="url(#clip0_1_2)">
<rect width="390" height="844" fill="#E6E6E6"/>
<g filter="url(#filter0_d_1_2)">
<path d="M112.834 200V175.232H121.438C125.038 175.232 127.966 175.748 130.222 176.78C132.502 177.812 134.17 179.24 135.226 181.064C136.306 182.888 136.846 185.012 136.846 187.436C136.846 191.396 135.538 194.48 132.922 196.688C130.33 198.896 126.382 200 121.078 200H112.834ZM120.79 193.7H123.094C125.014 193.7 126.442 193.124 127.378 191.972C128.314 190.796 128.782 189.26 128.782 187.364C128.782 185.612 128.326 184.208 127.414 183.152C126.526 182.072 125.086 181.532 123.094 181.532H120.79V193.7ZM146.963 200V175.232H155.099V200H146.963ZM166.257 200V175.232H173.745L179.937 187.256L185.985 175.232H193.473V200H185.985V187.04L181.413 195.68H178.353L173.745 187.04V200H166.257ZM207.809 200.216C206.489 200.216 205.481 199.868 204.785 199.172C204.089 198.452 203.741 197.576 203.741 196.544C203.741 195.488 204.113 194.624 204.857 193.952C205.601 193.256 206.585 192.908 207.809 192.908C209.033 192.908 210.005 193.268 210.725 193.988C211.469 194.708 211.841 195.56 211.841 196.544C211.841 197.648 211.493 198.536 210.797 199.208C210.125 199.88 209.129 200.216 207.809 200.216ZM222.106 200V175.232H229.306L239.026 188.372V175.232H245.65V200H238.45L228.73 187.4V200H222.106ZM275.554 200.576C273.826 200.576 272.398 200.324 271.27 199.82C270.142 199.292 269.242 198.572 268.57 197.66C267.898 196.748 267.394 195.68 267.058 194.456C266.722 193.232 266.494 191.912 266.374 190.496H264.682V200H256.798V175.232H266.986C270.922 175.232 273.754 175.928 275.482 177.32C277.234 178.688 278.11 180.548 278.11 182.9C278.11 184.316 277.726 185.588 276.958 186.716C276.19 187.82 274.954 188.744 273.25 189.488C273.346 190.016 273.43 190.448 273.502 190.784C273.574 191.12 273.682 191.492 273.826 191.9C274.138 192.764 274.522 193.364 274.978 193.7C275.458 194.036 276.106 194.204 276.922 194.204C277.45 194.204 277.978 194.132 278.506 193.988L278.938 199.892C278.458 200.084 277.942 200.24 277.39 200.36C276.862 200.504 276.25 200.576 275.554 200.576ZM264.682 185.564H266.05C267.826 185.564 269.074 185.372 269.794 184.988C270.538 184.58 270.91 183.896 270.91 182.936C270.91 182.12 270.61 181.532 270.01 181.172C269.41 180.788 268.462 180.596 267.166 180.596H264.682V185.564ZM24.5562 250V225.196H32.9442C37.0242 225.196 40.0962 225.868 42.1602 227.212C44.2482 228.532 45.2922 230.488 45.2922 233.08C45.2922 234.88 44.8362 236.416 43.9242 237.688C43.0362 238.936 41.7762 239.896 40.1442 240.568C38.5122 241.216 36.5922 241.54 34.3842 241.54H32.5122V250H24.5562ZM34.0602 236.536C35.3322 236.536 36.3162 236.272 37.0122 235.744C37.7082 235.216 38.0562 234.424 38.0562 233.368C38.0562 232.384 37.7202 231.652 37.0482 231.172C36.3762 230.668 35.4042 230.416 34.1322 230.416H32.5122V236.536H34.0602ZM55.0648 250V225.232H63.1648V234.556H70.8328V225.232H78.9688V250H70.8328V240.244H63.1648V250H55.0648ZM102.348 250.576C99.7317 250.576 97.4277 250.024 95.4357 248.92C93.4437 247.816 91.8837 246.292 90.7557 244.348C89.6517 242.404 89.0997 240.172 89.0997 237.652C89.0997 235.108 89.6517 232.864 90.7557 230.92C91.8837 228.976 93.4437 227.452 95.4357 226.348C97.4277 225.244 99.7317 224.692 102.348 224.692C104.964 224.692 107.268 225.244 109.26 226.348C111.252 227.428 112.8 228.94 113.904 230.884C115.032 232.828 115.596 235.084 115.596 237.652C115.596 240.172 115.032 242.404 113.904 244.348C112.8 246.292 111.252 247.816 109.26 248.92C107.268 250.024 104.964 250.576 102.348 250.576ZM102.348 244.024C103.86 244.024 105.096 243.436 106.056 242.26C107.04 241.084 107.532 239.536 107.532 237.616C107.532 236.32 107.304 235.18 106.848 234.196C106.416 233.212 105.804 232.444 105.012 231.892C104.244 231.316 103.344 231.028 102.312 231.028C100.8 231.028 99.5637 231.64 98.6037 232.864C97.6437 234.064 97.1637 235.648 97.1637 237.616C97.1637 239.536 97.6437 241.084 98.6037 242.26C99.5637 243.436 100.812 244.024 102.348 244.024ZM128.9 250V230.92H123.32V225.232H142.868V230.92H137.288V250H128.9ZM163.822 250.576C161.206 250.576 158.902 250.024 156.91 248.92C154.918 247.816 153.358 246.292 152.23 244.348C151.126 242.404 150.574 240.172 150.574 237.652C150.574 235.108 151.126 232.864 152.23 230.92C153.358 228.976 154.918 227.452 156.91 226.348C158.902 225.244 161.206 224.692 163.822 224.692C166.438 224.692 168.742 225.244 170.734 226.348C172.726 227.428 174.274 228.94 175.378 230.884C176.506 232.828 177.07 235.084 177.07 237.652C177.07 240.172 176.506 242.404 175.378 244.348C174.274 246.292 172.726 247.816 170.734 248.92C168.742 250.024 166.438 250.576 163.822 250.576ZM163.822 244.024C165.334 244.024 166.57 243.436 167.53 242.26C168.514 241.084 169.006 239.536 169.006 237.616C169.006 236.32 168.778 235.18 168.322 234.196C167.89 233.212 167.278 232.444 166.486 231.892C165.718 231.316 164.818 231.028 163.786 231.028C162.274 231.028 161.038 231.64 160.078 232.864C159.118 234.064 158.638 235.648 158.638 237.616C158.638 239.536 159.118 241.084 160.078 242.26C161.038 243.436 162.286 244.024 163.822 244.024ZM198.925 250.576C196.333 250.576 194.077 250.048 192.157 248.992C190.261 247.936 188.785 246.472 187.729 244.6C186.673 242.728 186.145 240.568 186.145 238.12C186.145 235.504 186.697 233.188 187.801 231.172C188.905 229.156 190.453 227.572 192.445 226.42C194.437 225.268 196.753 224.692 199.393 224.692C202.273 224.692 204.565 225.268 206.269 226.42L205.189 232.072C203.677 231.424 202.105 231.1 200.473 231.1C198.505 231.1 196.957 231.688 195.829 232.864C194.701 234.04 194.137 235.672 194.137 237.76C194.137 239.872 194.641 241.516 195.649 242.692C196.681 243.868 197.989 244.456 199.573 244.456C200.149 244.456 200.629 244.408 201.013 244.312V238.156L207.241 237.436V248.704C205.873 249.328 204.481 249.796 203.065 250.108C201.649 250.42 200.269 250.576 198.925 250.576ZM236.77 250.576C235.042 250.576 233.614 250.324 232.486 249.82C231.358 249.292 230.458 248.572 229.786 247.66C229.114 246.748 228.61 245.68 228.274 244.456C227.938 243.232 227.71 241.912 227.59 240.496H225.898V250H218.014V225.232H228.202C232.138 225.232 234.97 225.928 236.698 227.32C238.45 228.688 239.326 230.548 239.326 232.9C239.326 234.316 238.942 235.588 238.174 236.716C237.406 237.82 236.17 238.744 234.466 239.488C234.562 240.016 234.646 240.448 234.718 240.784C234.79 241.12 234.898 241.492 235.042 241.9C235.354 242.764 235.738 243.364 236.194 243.7C236.674 244.036 237.322 244.204 238.138 244.204C238.666 244.204 239.194 244.132 239.722 243.988L240.154 249.892C239.674 250.084 239.158 250.24 238.606 250.36C238.078 250.504 237.466 250.576 236.77 250.576ZM225.898 235.564H227.266C229.042 235.564 230.29 235.372 231.01 234.988C231.754 234.58 232.126 233.896 232.126 232.936C232.126 232.12 231.826 231.532 231.226 231.172C230.626 230.788 229.678 230.596 228.382 230.596H225.898V235.564ZM247.706 250L254.546 225.232H266.21L273.374 250H264.554L263.618 245.248H257.21L256.166 250H247.706ZM257.966 240.82H262.754L260.414 229.984L257.966 240.82ZM282.512 250V225.196H290.9C294.98 225.196 298.052 225.868 300.116 227.212C302.204 228.532 303.248 230.488 303.248 233.08C303.248 234.88 302.792 236.416 301.88 237.688C300.992 238.936 299.732 239.896 298.1 240.568C296.468 241.216 294.548 241.54 292.34 241.54H290.468V250H282.512ZM292.016 236.536C293.288 236.536 294.272 236.272 294.968 235.744C295.664 235.216 296.012 234.424 296.012 233.368C296.012 232.384 295.676 231.652 295.004 231.172C294.332 230.668 293.36 230.416 292.088 230.416H290.468V236.536H292.016ZM313.02 250V225.232H321.12V234.556H328.788V225.232H336.924V250H328.788V240.244H321.12V250H313.02ZM352.779 250V243.124L345.651 225.232H353.391L356.883 236.176L360.303 225.232H368.007L360.519 243.124V250H352.779Z" fill="#705245"/>
</g>
<path d="M15.0102 383V357.404C17.0022 357.212 18.9342 357.116 20.8062 357.116C23.3262 357.116 25.3422 357.704 26.8542 358.88C28.3902 360.056 29.1582 361.832 29.1582 364.208C29.1582 366.56 28.1142 368.504 26.0262 370.04C23.9622 371.552 21.4902 372.308 18.6102 372.308C18.4902 372.308 18.3582 372.308 18.2142 372.308V371.12C18.3102 371.12 18.3942 371.12 18.4662 371.12C20.8422 371.12 22.9062 370.496 24.6582 369.248C26.4102 368 27.2862 366.38 27.2862 364.388C27.2862 362.372 26.6742 360.92 25.4502 360.032C24.2262 359.12 22.5822 358.664 20.5182 358.664C19.4382 358.664 18.1782 358.712 16.7382 358.808V383H15.0102ZM64.1882 383V371.192H47.9522V383H46.2962V359.636H47.9522V369.716H64.1882V359.636H65.8442V383H64.1882ZM95.6235 383.36C92.2875 383.36 89.4915 382.196 87.2355 379.868C84.9795 377.54 83.8515 374.696 83.8515 371.336C83.8515 367.952 84.9795 365.096 87.2355 362.768C89.4915 360.44 92.2875 359.276 95.6235 359.276C98.9595 359.276 101.755 360.44 104.011 362.768C106.267 365.096 107.395 367.952 107.395 371.336C107.395 374.696 106.267 377.54 104.011 379.868C101.755 382.196 98.9595 383.36 95.6235 383.36ZM95.6235 360.752C92.7435 360.752 90.3435 361.772 88.4235 363.812C86.5275 365.852 85.5795 368.36 85.5795 371.336C85.5795 374.288 86.5275 376.784 88.4235 378.824C90.3435 380.84 92.7435 381.848 95.6235 381.848C98.5275 381.848 100.927 380.84 102.823 378.824C104.719 376.784 105.667 374.288 105.667 371.336C105.667 368.36 104.719 365.852 102.823 363.812C100.927 361.772 98.5275 360.752 95.6235 360.752ZM128.779 361.112H120.859V359.636H138.319V361.112H130.399V383H128.779V361.112ZM163.524 383.36C160.188 383.36 157.392 382.196 155.136 379.868C152.88 377.54 151.752 374.696 151.752 371.336C151.752 367.952 152.88 365.096 155.136 362.768C157.392 360.44 160.188 359.276 163.524 359.276C166.86 359.276 169.656 360.44 171.912 362.768C174.168 365.096 175.296 367.952 175.296 371.336C175.296 374.696 174.168 377.54 171.912 379.868C169.656 382.196 166.86 383.36 163.524 383.36ZM163.524 360.752C160.644 360.752 158.244 361.772 156.324 363.812C154.428 365.852 153.48 368.36 153.48 371.336C153.48 374.288 154.428 376.784 156.324 378.824C158.244 380.84 160.644 381.848 163.524 381.848C166.428 381.848 168.828 380.84 170.724 378.824C172.62 376.784 173.568 374.288 173.568 371.336C173.568 368.36 172.62 365.852 170.724 363.812C168.828 361.772 166.428 360.752 163.524 360.752ZM203.069 360.752C200.405 360.752 198.161 361.772 196.337 363.812C194.537 365.828 193.637 368.312 193.637 371.264C193.637 374.216 194.657 376.724 196.697 378.788C198.737 380.828 201.137 381.848 203.897 381.848C206.681 381.848 208.841 381.524 210.377 380.876V371.264H212.033V381.632C210.161 382.784 207.509 383.36 204.077 383.36C200.645 383.36 197.753 382.196 195.401 379.868C193.049 377.54 191.873 374.684 191.873 371.3C191.873 367.892 192.929 365.036 195.041 362.732C197.177 360.428 199.925 359.276 203.285 359.276C205.997 359.276 208.649 359.696 211.241 360.536L210.809 361.904C208.313 361.136 205.733 360.752 203.069 360.752ZM230.691 383V359.744C232.755 359.576 234.507 359.492 235.947 359.492C238.155 359.492 239.979 360.068 241.419 361.22C242.859 362.348 243.579 363.968 243.579 366.08C243.579 367.496 243.171 368.804 242.355 370.004C241.539 371.204 240.615 372.176 239.583 372.92C242.439 376.712 244.203 378.98 244.875 379.724C246.243 381.14 247.731 381.944 249.339 382.136L249.303 383.252C247.959 383.228 246.867 383.036 246.027 382.676C245.187 382.292 244.347 381.656 243.507 380.768C242.691 379.88 240.879 377.492 238.071 373.604C236.127 373.604 234.219 373.544 232.347 373.424V383H230.691ZM237.171 372.236C238.107 372.236 239.115 371.612 240.195 370.364C241.275 369.116 241.815 367.664 241.815 366.008C241.815 364.352 241.251 363.092 240.123 362.228C238.995 361.364 237.531 360.932 235.731 360.932C234.771 360.932 233.643 360.98 232.347 361.076V372.056C234.075 372.176 235.683 372.236 237.171 372.236ZM265.424 374.9L262.076 383H260.384L270.176 359.492H271.148L281.012 383H279.176L275.792 374.9H265.424ZM270.572 362.156C270.212 363.236 269.888 364.136 269.6 364.856L266 373.496H275.216L271.652 364.892C271.1 363.548 270.74 362.636 270.572 362.156ZM296.552 383V359.78C298.352 359.588 300.248 359.492 302.24 359.492C304.256 359.492 305.96 360.032 307.352 361.112C308.744 362.168 309.44 363.776 309.44 365.936C309.44 368.096 308.492 369.872 306.596 371.264C304.7 372.632 302.456 373.316 299.864 373.316C299.744 373.316 299.612 373.316 299.468 373.316V372.164C299.564 372.164 299.648 372.164 299.72 372.164C301.856 372.164 303.716 371.6 305.3 370.472C306.884 369.344 307.676 367.88 307.676 366.08C307.676 364.28 307.112 362.972 305.984 362.156C304.88 361.34 303.416 360.932 301.592 360.932C300.632 360.932 299.504 360.98 298.208 361.076V383H296.552ZM344.264 383V371.192H328.028V383H326.372V359.636H328.028V369.716H344.264V359.636H345.92V383H344.264ZM365.367 383V359.636H376.275V361.076H367.023V369.572H375.375V370.976H367.023V381.488H376.635V383H365.367Z" fill="#705245"/>
<path d="M85.7114 428.78L94.3514 408.26H96.1874L85.0994 434.216H84.0914L72.9674 408.26H74.9114L83.5514 428.708C84.1514 430.172 84.5234 431.18 84.6674 431.732C84.8594 430.964 85.2074 429.98 85.7114 428.78ZM111.875 434V410.636H113.531V434H111.875ZM140.463 432.776C143.535 432.776 145.995 431.948 147.843 430.292C149.715 428.636 150.651 426.14 150.651 422.804C150.651 419.468 149.595 416.816 147.483 414.848C145.395 412.88 142.815 411.896 139.743 411.896C137.559 411.896 135.879 411.944 134.703 412.04V432.524C136.143 432.692 138.063 432.776 140.463 432.776ZM139.743 410.42C143.343 410.42 146.343 411.536 148.743 413.768C151.167 415.976 152.379 418.988 152.379 422.804C152.379 426.62 151.263 429.488 149.031 431.408C146.823 433.328 143.967 434.288 140.463 434.288C138.039 434.288 135.543 434.168 132.975 433.928V410.636C134.895 410.492 137.151 410.42 139.743 410.42ZM170.389 434V410.636H181.297V412.076H172.045V420.572H180.397V421.976H172.045V432.488H181.657V434H170.389ZM179.425 406.856L174.169 408.764L172.945 408.404L179.209 404.948L179.425 406.856ZM200.235 425.9L196.887 434H195.195L204.987 410.492H205.959L215.823 434H213.987L210.603 425.9H200.235ZM205.383 413.156C205.023 414.236 204.699 415.136 204.411 415.856L200.811 424.496H210.027L206.463 415.892C205.911 414.548 205.551 413.636 205.383 413.156ZM236.08 411.644C234.784 411.644 233.728 411.956 232.912 412.58C232.096 413.204 231.688 414.08 231.688 415.208C231.688 416.504 232.228 417.668 233.308 418.7C234.076 419.444 235.06 420.236 236.26 421.076C237.484 421.892 238.324 422.48 238.78 422.84C239.236 423.2 239.788 423.692 240.436 424.316C241.612 425.492 242.2 426.848 242.2 428.384C242.2 430.376 241.528 431.888 240.184 432.92C238.864 433.928 237.004 434.432 234.604 434.432C232.228 434.432 230.236 433.808 228.628 432.56L229.492 431.3C231.124 432.404 232.852 432.956 234.676 432.956C236.5 432.956 237.916 432.572 238.924 431.804C239.956 431.036 240.472 429.956 240.472 428.564C240.472 427.364 239.956 426.26 238.924 425.252C238.204 424.532 237.232 423.752 236.008 422.912C234.808 422.072 233.968 421.472 233.488 421.112C233.008 420.728 232.444 420.224 231.796 419.6C230.572 418.376 229.96 416.96 229.96 415.352C229.96 413.744 230.524 412.484 231.652 411.572C232.804 410.66 234.388 410.204 236.404 410.204C238.42 410.204 240.232 410.6 241.84 411.392L241.228 412.724C239.74 412.004 238.024 411.644 236.08 411.644ZM263.812 412.112H255.892V410.636H273.352V412.112H265.432V434H263.812V412.112ZM289.034 434V410.636H299.942V412.076H290.69V420.572H299.042V421.976H290.69V432.488H300.302V434H289.034Z" fill="#705245"/>
<path d="M104.462 83.888C105.71 83.792 106.982 83.744 108.278 83.744C109.59 83.744 110.718 84.064 111.662 84.704C112.622 85.344 113.102 86.272 113.102 87.488C113.102 88.4 112.846 89.248 112.334 90.032C111.838 90.816 111.238 91.408 110.534 91.808C111.67 92.16 112.622 92.768 113.39 93.632C114.158 94.496 114.542 95.464 114.542 96.536C114.542 98.04 114.062 99.184 113.102 99.968C112.158 100.752 110.854 101.144 109.19 101.144C107.542 101.144 105.966 101.08 104.462 100.952V83.888ZM109.334 100.112C110.502 100.112 111.462 99.792 112.214 99.152C112.966 98.496 113.342 97.664 113.342 96.656C113.342 95.648 112.974 94.776 112.238 94.04C111.518 93.304 110.526 92.8 109.262 92.528C108.67 92.4 107.982 92.336 107.198 92.336C106.43 92.336 105.902 92.336 105.614 92.336V99.992C106.318 100.072 107.558 100.112 109.334 100.112ZM111.95 87.464C111.95 86.584 111.582 85.904 110.846 85.424C110.126 84.944 109.31 84.704 108.398 84.704C107.502 84.704 106.574 84.736 105.614 84.8V91.352C105.822 91.352 106.214 91.352 106.79 91.352C107.366 91.352 108.214 91.4 109.334 91.496C110.054 91.112 110.67 90.56 111.182 89.84C111.694 89.12 111.95 88.328 111.95 87.464ZM126.467 101V85.424H127.571V101H126.467ZM140.535 101V85.424H147.807V86.384H141.639V92.048H147.207V92.984H141.639V99.992H148.047V101H140.535ZM159.664 101V85.328H160.192L170.416 97.088C170.784 97.504 171.12 97.92 171.424 98.336C171.744 98.736 171.912 98.944 171.928 98.96C171.896 98.576 171.88 97.824 171.88 96.704V85.424H172.984V101.096H172.456L162.04 89.144L160.72 87.536C160.752 87.856 160.768 88.608 160.768 89.792V101H159.664ZM191.031 97.736L196.239 85.424H197.391L190.695 101.096H190.047L183.351 85.424H184.551L190.431 99.272C190.511 99.032 190.711 98.52 191.031 97.736ZM207.767 101V85.424H215.039V86.384H208.871V92.048H214.439V92.984H208.871V99.992H215.279V101H207.767ZM226.897 101V85.328H227.425L237.649 97.088C238.017 97.504 238.353 97.92 238.657 98.336C238.977 98.736 239.145 98.944 239.161 98.96C239.129 98.576 239.113 97.824 239.113 96.704V85.424H240.217V101.096H239.689L229.273 89.144L227.953 87.536C227.985 87.856 228.001 88.608 228.001 89.792V101H226.897ZM264.263 99.392C263.207 100.624 261.599 101.24 259.439 101.24C257.279 101.24 255.671 100.624 254.615 99.392C253.559 98.16 253.031 96.456 253.031 94.28V85.424H254.135V94.28C254.135 98.264 255.903 100.256 259.439 100.256C262.975 100.256 264.743 98.264 264.743 94.28V85.424H265.847V94.28C265.847 96.456 265.319 98.16 264.263 99.392ZM278.657 101V85.424H285.929V86.384H279.761V92.048H285.329V92.984H279.761V99.992H286.169V101H278.657Z" fill="black"/>
<path d="M39.9779 555V540.78C41.0846 540.673 42.1579 540.62 43.1979 540.62C44.5979 540.62 45.7179 540.947 46.5579 541.6C47.4112 542.253 47.8379 543.24 47.8379 544.56C47.8379 545.867 47.2579 546.947 46.0979 547.8C44.9512 548.64 43.5779 549.06 41.9779 549.06C41.9112 549.06 41.8379 549.06 41.7579 549.06V548.4C41.8112 548.4 41.8579 548.4 41.8979 548.4C43.2179 548.4 44.3646 548.053 45.3379 547.36C46.3112 546.667 46.7979 545.767 46.7979 544.66C46.7979 543.54 46.4579 542.733 45.7779 542.24C45.0979 541.733 44.1846 541.48 43.0379 541.48C42.4379 541.48 41.7379 541.507 40.9379 541.56V555H39.9779ZM57.359 555V542.08C58.5057 541.987 59.479 541.94 60.279 541.94C61.5057 541.94 62.519 542.26 63.319 542.9C64.119 543.527 64.519 544.427 64.519 545.6C64.519 546.387 64.2923 547.113 63.839 547.78C63.3857 548.447 62.8723 548.987 62.299 549.4C63.8857 551.507 64.8657 552.767 65.239 553.18C65.999 553.967 66.8257 554.413 67.719 554.52L67.699 555.14C66.9523 555.127 66.3457 555.02 65.879 554.82C65.4123 554.607 64.9457 554.253 64.479 553.76C64.0257 553.267 63.019 551.94 61.459 549.78C60.379 549.78 59.319 549.747 58.279 549.68V555H57.359ZM60.959 549.02C61.479 549.02 62.039 548.673 62.639 547.98C63.239 547.287 63.539 546.48 63.539 545.56C63.539 544.64 63.2257 543.94 62.599 543.46C61.9723 542.98 61.159 542.74 60.159 542.74C59.6257 542.74 58.999 542.767 58.279 542.82V548.92C59.239 548.987 60.1323 549.02 60.959 549.02ZM75.527 555V542.02H81.587V542.82H76.447V547.54H81.087V548.32H76.447V554.16H81.787V555H75.527ZM80.547 539.92L77.627 540.98L76.947 540.78L80.427 538.86L80.547 539.92ZM94.0884 542.58C93.3684 542.58 92.7817 542.753 92.3284 543.1C91.875 543.447 91.6484 543.933 91.6484 544.56C91.6484 545.28 91.9484 545.927 92.5484 546.5C92.975 546.913 93.5217 547.353 94.1884 547.82C94.8684 548.273 95.335 548.6 95.5884 548.8C95.8417 549 96.1484 549.273 96.5084 549.62C97.1617 550.273 97.4884 551.027 97.4884 551.88C97.4884 552.987 97.115 553.827 96.3684 554.4C95.635 554.96 94.6017 555.24 93.2684 555.24C91.9484 555.24 90.8417 554.893 89.9484 554.2L90.4284 553.5C91.335 554.113 92.295 554.42 93.3084 554.42C94.3217 554.42 95.1084 554.207 95.6684 553.78C96.2417 553.353 96.5284 552.753 96.5284 551.98C96.5284 551.313 96.2417 550.7 95.6684 550.14C95.2684 549.74 94.7284 549.307 94.0484 548.84C93.3817 548.373 92.915 548.04 92.6484 547.84C92.3817 547.627 92.0684 547.347 91.7084 547C91.0284 546.32 90.6884 545.533 90.6884 544.64C90.6884 543.747 91.0017 543.047 91.6284 542.54C92.2684 542.033 93.1484 541.78 94.2684 541.78C95.3884 541.78 96.395 542 97.2884 542.44L96.9484 543.18C96.1217 542.78 95.1684 542.58 94.0884 542.58ZM107.175 555V542.02H113.235V542.82H108.095V547.54H112.735V548.32H108.095V554.16H113.435V555H107.175ZM123.117 555V541.94H123.557L132.077 551.74C132.383 552.087 132.663 552.433 132.917 552.78C133.183 553.113 133.323 553.287 133.337 553.3C133.31 552.98 133.297 552.353 133.297 551.42V542.02H134.217V555.08H133.777L125.097 545.12L123.997 543.78C124.023 544.047 124.037 544.673 124.037 545.66V555H123.117ZM147.335 542.84H142.935V542.02H152.635V542.84H148.235V555H147.335V542.84ZM160.757 550.5L158.897 555H157.957L163.397 541.94H163.937L169.417 555H168.397L166.517 550.5H160.757ZM163.617 543.42C163.417 544.02 163.237 544.52 163.077 544.92L161.077 549.72H166.197L164.217 544.94C163.91 544.193 163.71 543.687 163.617 543.42ZM179.14 542.84H174.74V542.02H184.44V542.84H180.04V555H179.14V542.84ZM193.152 555V542.02H194.072V555H193.152ZM210.615 555.2C208.761 555.2 207.208 554.553 205.955 553.26C204.701 551.967 204.075 550.387 204.075 548.52C204.075 546.64 204.701 545.053 205.955 543.76C207.208 542.467 208.761 541.82 210.615 541.82C212.468 541.82 214.021 542.467 215.275 543.76C216.528 545.053 217.155 546.64 217.155 548.52C217.155 550.387 216.528 551.967 215.275 553.26C214.021 554.553 212.468 555.2 210.615 555.2ZM210.615 542.64C209.015 542.64 207.681 543.207 206.615 544.34C205.561 545.473 205.035 546.867 205.035 548.52C205.035 550.16 205.561 551.547 206.615 552.68C207.681 553.8 209.015 554.36 210.615 554.36C212.228 554.36 213.561 553.8 214.615 552.68C215.668 551.547 216.195 550.16 216.195 548.52C216.195 546.867 215.668 545.473 214.615 544.34C213.561 543.207 212.228 542.64 210.615 542.64ZM227.164 555V541.94H227.604L236.124 551.74C236.43 552.087 236.71 552.433 236.964 552.78C237.23 553.113 237.37 553.287 237.384 553.3C237.357 552.98 237.344 552.353 237.344 551.42V542.02H238.264V555.08H237.824L229.144 545.12L228.044 543.78C228.07 544.047 228.084 544.673 228.084 545.66V555H227.164Z" fill="black"/>
<line x1="-1.01261e-09" y1="548.5" x2="26" y2="548.5" stroke="#705245"/>
<path d="M46.7164 673.24C44.6364 673.24 42.8497 672.533 41.3564 671.12C39.8631 669.693 39.1164 667.94 39.1164 665.86C39.1164 663.767 39.7697 662.013 41.0764 660.6C42.3831 659.173 44.0564 658.46 46.0964 658.46C47.6964 658.46 49.3164 658.727 50.9564 659.26L50.6964 660.06C49.0964 659.58 47.5631 659.34 46.0964 659.34C44.3497 659.34 42.9231 659.967 41.8164 661.22C40.7097 662.473 40.1564 664.007 40.1564 665.82C40.1564 667.633 40.7964 669.18 42.0764 670.46C43.3697 671.727 44.9164 672.36 46.7164 672.36C48.2897 672.36 49.6497 672.12 50.7964 671.64L51.0964 672.32C50.5897 672.613 49.9231 672.84 49.0964 673C48.2831 673.16 47.4897 673.24 46.7164 673.24ZM66.1244 673.2C64.271 673.2 62.7177 672.553 61.4644 671.26C60.211 669.967 59.5844 668.387 59.5844 666.52C59.5844 664.64 60.211 663.053 61.4644 661.76C62.7177 660.467 64.271 659.82 66.1244 659.82C67.9777 659.82 69.531 660.467 70.7844 661.76C72.0377 663.053 72.6644 664.64 72.6644 666.52C72.6644 668.387 72.0377 669.967 70.7844 671.26C69.531 672.553 67.9777 673.2 66.1244 673.2ZM66.1244 660.64C64.5244 660.64 63.191 661.207 62.1244 662.34C61.071 663.473 60.5444 664.867 60.5444 666.52C60.5444 668.16 61.071 669.547 62.1244 670.68C63.191 671.8 64.5244 672.36 66.1244 672.36C67.7377 672.36 69.071 671.8 70.1244 670.68C71.1777 669.547 71.7044 668.16 71.7044 666.52C71.7044 664.867 71.1777 663.473 70.1244 662.34C69.071 661.207 67.7377 660.64 66.1244 660.64ZM82.6734 673V659.94H83.1134L91.6334 669.74C91.9401 670.087 92.2201 670.433 92.4734 670.78C92.7401 671.113 92.8801 671.287 92.8934 671.3C92.8668 670.98 92.8534 670.353 92.8534 669.42V660.02H93.7734V673.08H93.3334L84.6534 663.12L83.5534 661.78C83.5801 662.047 83.5934 662.673 83.5934 663.66V673H82.6734ZM106.892 660.84H102.492V660.02H112.192V660.84H107.792V673H106.892V660.84ZM120.313 668.5L118.453 673H117.513L122.953 659.94H123.493L128.973 673H127.953L126.073 668.5H120.313ZM123.173 661.42C122.973 662.02 122.793 662.52 122.633 662.92L120.633 667.72H125.753L123.773 662.94C123.467 662.193 123.267 661.687 123.173 661.42ZM147.473 672.36C146.473 672.92 145.079 673.2 143.293 673.2C141.519 673.2 139.953 672.56 138.593 671.28C137.246 670 136.573 668.413 136.573 666.52C136.573 664.613 137.159 663.02 138.333 661.74C139.519 660.46 141.046 659.82 142.913 659.82C144.419 659.82 145.893 660.053 147.333 660.52L147.093 661.28C145.706 660.853 144.273 660.64 142.793 660.64C141.313 660.64 140.066 661.207 139.053 662.34C138.053 663.46 137.553 664.84 137.553 666.48C137.553 668.107 138.133 669.493 139.293 670.64C140.466 671.787 141.819 672.36 143.353 672.36C144.886 672.36 146.159 672.147 147.173 671.72L147.473 672.36ZM159.072 660.84H154.672V660.02H164.372V660.84H159.972V673H159.072V660.84Z" fill="black"/>
<path d="M263.716 32.24C261.636 32.24 259.85 31.5333 258.356 30.12C256.863 28.6933 256.116 26.94 256.116 24.86C256.116 22.7667 256.77 21.0133 258.076 19.6C259.383 18.1733 261.056 17.46 263.096 17.46C264.696 17.46 266.316 17.7267 267.956 18.26L267.696 19.06C266.096 18.58 264.563 18.34 263.096 18.34C261.35 18.34 259.923 18.9667 258.816 20.22C257.71 21.4733 257.156 23.0067 257.156 24.82C257.156 26.6333 257.796 28.18 259.076 29.46C260.37 30.7267 261.916 31.36 263.716 31.36C265.29 31.36 266.65 31.12 267.796 30.64L268.096 31.32C267.59 31.6133 266.923 31.84 266.096 32C265.283 32.16 264.49 32.24 263.716 32.24ZM283.124 32.2C281.271 32.2 279.718 31.5533 278.464 30.26C277.211 28.9667 276.584 27.3867 276.584 25.52C276.584 23.64 277.211 22.0533 278.464 20.76C279.718 19.4667 281.271 18.82 283.124 18.82C284.978 18.82 286.531 19.4667 287.784 20.76C289.038 22.0533 289.664 23.64 289.664 25.52C289.664 27.3867 289.038 28.9667 287.784 30.26C286.531 31.5533 284.978 32.2 283.124 32.2ZM283.124 19.64C281.524 19.64 280.191 20.2067 279.124 21.34C278.071 22.4733 277.544 23.8667 277.544 25.52C277.544 27.16 278.071 28.5467 279.124 29.68C280.191 30.8 281.524 31.36 283.124 31.36C284.738 31.36 286.071 30.8 287.124 29.68C288.178 28.5467 288.704 27.16 288.704 25.52C288.704 23.8667 288.178 22.4733 287.124 21.34C286.071 20.2067 284.738 19.64 283.124 19.64ZM299.673 32V18.94H300.113L308.633 28.74C308.94 29.0867 309.22 29.4333 309.473 29.78C309.74 30.1133 309.88 30.2867 309.893 30.3C309.867 29.98 309.853 29.3533 309.853 28.42V19.02H310.773V32.08H310.333L301.653 22.12L300.553 20.78C300.58 21.0467 300.593 21.6733 300.593 22.66V32H299.673ZM323.892 19.84H319.492V19.02H329.192V19.84H324.792V32H323.892V19.84ZM337.313 27.5L335.453 32H334.513L339.953 18.94H340.493L345.973 32H344.953L343.073 27.5H337.313ZM340.173 20.42C339.973 21.02 339.793 21.52 339.633 21.92L337.633 26.72H342.753L340.773 21.94C340.467 21.1933 340.267 20.6867 340.173 20.42ZM364.473 31.36C363.473 31.92 362.079 32.2 360.293 32.2C358.519 32.2 356.953 31.56 355.593 30.28C354.246 29 353.573 27.4133 353.573 25.52C353.573 23.6133 354.159 22.02 355.333 20.74C356.519 19.46 358.046 18.82 359.913 18.82C361.419 18.82 362.893 19.0533 364.333 19.52L364.093 20.28C362.706 19.8533 361.273 19.64 359.793 19.64C358.313 19.64 357.066 20.2067 356.053 21.34C355.053 22.46 354.553 23.84 354.553 25.48C354.553 27.1067 355.133 28.4933 356.293 29.64C357.466 30.7867 358.819 31.36 360.353 31.36C361.886 31.36 363.159 31.1467 364.173 30.72L364.473 31.36ZM376.072 19.84H371.672V19.02H381.372V19.84H376.972V32H376.072V19.84Z" fill="black"/>
<line x1="-1.01261e-09" y1="666.5" x2="26" y2="666.5" stroke="#705245"/>
<path d="M46.5934 643.24C44.5134 643.24 42.7267 642.533 41.2334 641.12C39.74 639.693 38.9934 637.94 38.9934 635.86C38.9934 633.767 39.6467 632.013 40.9534 630.6C42.26 629.173 43.9334 628.46 45.9734 628.46C47.5734 628.46 49.1934 628.727 50.8334 629.26L50.5734 630.06C48.9734 629.58 47.44 629.34 45.9734 629.34C44.2267 629.34 42.8 629.967 41.6934 631.22C40.5867 632.473 40.0334 634.007 40.0334 635.82C40.0334 637.633 40.6734 639.18 41.9534 640.46C43.2467 641.727 44.7934 642.36 46.5934 642.36C48.1667 642.36 49.5267 642.12 50.6734 641.64L50.9734 642.32C50.4667 642.613 49.8 642.84 48.9734 643C48.16 643.16 47.3667 643.24 46.5934 643.24ZM66.0013 643.2C64.148 643.2 62.5947 642.553 61.3413 641.26C60.088 639.967 59.4613 638.387 59.4613 636.52C59.4613 634.64 60.088 633.053 61.3413 631.76C62.5947 630.467 64.148 629.82 66.0013 629.82C67.8547 629.82 69.408 630.467 70.6613 631.76C71.9147 633.053 72.5413 634.64 72.5413 636.52C72.5413 638.387 71.9147 639.967 70.6613 641.26C69.408 642.553 67.8547 643.2 66.0013 643.2ZM66.0013 630.64C64.4013 630.64 63.068 631.207 62.0013 632.34C60.948 633.473 60.4213 634.867 60.4213 636.52C60.4213 638.16 60.948 639.547 62.0013 640.68C63.068 641.8 64.4013 642.36 66.0013 642.36C67.6147 642.36 68.948 641.8 70.0013 640.68C71.0547 639.547 71.5813 638.16 71.5813 636.52C71.5813 634.867 71.0547 633.473 70.0013 632.34C68.948 631.207 67.6147 630.64 66.0013 630.64ZM82.5504 643V630.08C83.6971 629.987 84.6704 629.94 85.4704 629.94C86.6971 629.94 87.7104 630.26 88.5104 630.9C89.3104 631.527 89.7104 632.427 89.7104 633.6C89.7104 634.387 89.4837 635.113 89.0304 635.78C88.5771 636.447 88.0637 636.987 87.4904 637.4C89.0771 639.507 90.0571 640.767 90.4304 641.18C91.1904 641.967 92.0171 642.413 92.9104 642.52L92.8904 643.14C92.1437 643.127 91.5371 643.02 91.0704 642.82C90.6037 642.607 90.1371 642.253 89.6704 641.76C89.2171 641.267 88.2104 639.94 86.6504 637.78C85.5704 637.78 84.5104 637.747 83.4704 637.68V643H82.5504ZM86.1504 637.02C86.6704 637.02 87.2304 636.673 87.8304 635.98C88.4304 635.287 88.7304 634.48 88.7304 633.56C88.7304 632.64 88.4171 631.94 87.7904 631.46C87.1637 630.98 86.3504 630.74 85.3504 630.74C84.8171 630.74 84.1904 630.767 83.4704 630.82V636.92C84.4304 636.987 85.3237 637.02 86.1504 637.02ZM100.718 643V630.1C101.718 629.993 102.772 629.94 103.878 629.94C104.998 629.94 105.945 630.24 106.718 630.84C107.492 631.427 107.878 632.32 107.878 633.52C107.878 634.72 107.352 635.707 106.298 636.48C105.245 637.24 103.998 637.62 102.558 637.62C102.492 637.62 102.418 637.62 102.338 637.62V636.98C102.392 636.98 102.438 636.98 102.478 636.98C103.665 636.98 104.698 636.667 105.578 636.04C106.458 635.413 106.898 634.6 106.898 633.6C106.898 632.6 106.585 631.873 105.958 631.42C105.345 630.967 104.532 630.74 103.518 630.74C102.985 630.74 102.358 630.767 101.638 630.82V643H100.718ZM123.025 643.2C121.171 643.2 119.618 642.553 118.365 641.26C117.111 639.967 116.485 638.387 116.485 636.52C116.485 634.64 117.111 633.053 118.365 631.76C119.618 630.467 121.171 629.82 123.025 629.82C124.878 629.82 126.431 630.467 127.685 631.76C128.938 633.053 129.565 634.64 129.565 636.52C129.565 638.387 128.938 639.967 127.685 641.26C126.431 642.553 124.878 643.2 123.025 643.2ZM123.025 630.64C121.425 630.64 120.091 631.207 119.025 632.34C117.971 633.473 117.445 634.867 117.445 636.52C117.445 638.16 117.971 639.547 119.025 640.68C120.091 641.8 121.425 642.36 123.025 642.36C124.638 642.36 125.971 641.8 127.025 640.68C128.078 639.547 128.605 638.16 128.605 636.52C128.605 634.867 128.078 633.473 127.025 632.34C125.971 631.207 124.638 630.64 123.025 630.64ZM139.574 643V630.08C140.72 629.987 141.694 629.94 142.494 629.94C143.72 629.94 144.734 630.26 145.534 630.9C146.334 631.527 146.734 632.427 146.734 633.6C146.734 634.387 146.507 635.113 146.054 635.78C145.6 636.447 145.087 636.987 144.514 637.4C146.1 639.507 147.08 640.767 147.454 641.18C148.214 641.967 149.04 642.413 149.934 642.52L149.914 643.14C149.167 643.127 148.56 643.02 148.094 642.82C147.627 642.607 147.16 642.253 146.694 641.76C146.24 641.267 145.234 639.94 143.674 637.78C142.594 637.78 141.534 637.747 140.494 637.68V643H139.574ZM143.174 637.02C143.694 637.02 144.254 636.673 144.854 635.98C145.454 635.287 145.754 634.48 145.754 633.56C145.754 632.64 145.44 631.94 144.814 631.46C144.187 630.98 143.374 630.74 142.374 630.74C141.84 630.74 141.214 630.767 140.494 630.82V636.92C141.454 636.987 142.347 637.02 143.174 637.02ZM158.87 638.5L157.01 643H156.07L161.51 629.94H162.05L167.53 643H166.51L164.63 638.5H158.87ZM161.73 631.42C161.53 632.02 161.35 632.52 161.19 632.92L159.19 637.72H164.31L162.33 632.94C162.023 632.193 161.823 631.687 161.73 631.42ZM177.253 630.84H172.853V630.02H182.553V630.84H178.153V643H177.253V630.84ZM191.265 643V630.02H197.325V630.82H192.185V635.54H196.825V636.32H192.185V642.16H197.525V643H191.265Z" fill="black"/>
<line x1="-1.01261e-09" y1="636.5" x2="26" y2="636.5" stroke="#705245"/>
<path d="M39.8002 612V597.7H46.4402V598.54H40.7602V603.8H45.9002V604.62H40.7602V611.16H46.6602V612H39.8002ZM60.6986 609.28L65.0386 599.02H65.9986L60.4186 612.08H59.8786L54.2986 599.02H55.2986L60.1986 610.56C60.2653 610.36 60.4319 609.933 60.6986 609.28ZM74.6461 612V599.02H80.7061V599.82H75.5661V604.54H80.2061V605.32H75.5661V611.16H80.9061V612H74.6461ZM78.7861 597.98L75.6861 596.38L76.8261 595.92L79.4861 597.78L78.7861 597.98ZM90.5875 612V598.94H91.0275L99.5475 608.74C99.8542 609.087 100.134 609.433 100.388 609.78C100.654 610.113 100.794 610.287 100.808 610.3C100.781 609.98 100.768 609.353 100.768 608.42V599.02H101.688V612.08H101.248L92.5675 602.12L91.4675 600.78C91.4942 601.047 91.5075 601.673 91.5075 602.66V612H90.5875ZM112.486 612V599.02H118.546V599.82H113.406V604.54H118.046V605.32H113.406V611.16H118.746V612H112.486ZM134.447 611.32H133.907L130.127 602.14C129.967 601.78 129.807 601.36 129.647 600.88C129.647 600.893 129.634 600.967 129.607 601.1C129.594 601.233 129.574 601.413 129.547 601.64C129.521 601.853 129.494 602.033 129.467 602.18L127.967 612H127.067L129.187 598.94H129.727L133.767 608.52C134.087 609.32 134.247 609.74 134.247 609.78C134.341 609.5 134.521 609.087 134.787 608.54L139.287 598.94H139.827L141.807 612H140.847L139.427 602.14C139.334 601.487 139.287 601.053 139.287 600.84L138.707 602.16L134.447 611.32ZM151.244 612V599.02H157.304V599.82H152.164V604.54H156.804V605.32H152.164V611.16H157.504V612H151.244ZM167.185 612V598.94H167.625L176.145 608.74C176.452 609.087 176.732 609.433 176.985 609.78C177.252 610.113 177.392 610.287 177.405 610.3C177.378 609.98 177.365 609.353 177.365 608.42V599.02H178.285V612.08H177.845L169.165 602.12L168.065 600.78C168.092 601.047 168.105 601.673 168.105 602.66V612H167.185ZM191.404 599.84H187.004V599.02H196.704V599.84H192.304V612H191.404V599.84ZM205.416 612V599.02H206.336V612H205.416ZM217.138 612V599.02H223.198V599.82H218.058V604.54H222.698V605.32H218.058V611.16H223.398V612H217.138ZM233.08 612V599.02H234V611.16H239.96V612H233.08ZM248.689 612V599.02H249.609V611.16H255.569V612H248.689ZM264.298 612V599.02H270.358V599.82H265.218V604.54H269.858V605.32H265.218V611.16H270.558V612H264.298Z" fill="black"/>
<line x1="-1.01261e-09" y1="605.5" x2="26" y2="605.5" stroke="#705245"/>
<path d="M40.0814 585V570.78C41.1881 570.673 42.2614 570.62 43.3014 570.62C44.7014 570.62 45.8214 570.947 46.6614 571.6C47.5147 572.253 47.9414 573.24 47.9414 574.56C47.9414 575.867 47.3614 576.947 46.2014 577.8C45.0547 578.64 43.6814 579.06 42.0814 579.06C42.0147 579.06 41.9414 579.06 41.8614 579.06V578.4C41.9147 578.4 41.9614 578.4 42.0014 578.4C43.3214 578.4 44.4681 578.053 45.4414 577.36C46.4147 576.667 46.9014 575.767 46.9014 574.66C46.9014 573.54 46.5614 572.733 45.8814 572.24C45.2014 571.733 44.2881 571.48 43.1414 571.48C42.5414 571.48 41.8414 571.507 41.0414 571.56V585H40.0814ZM63.2025 585.2C61.3492 585.2 59.7958 584.553 58.5425 583.26C57.2892 581.967 56.6625 580.387 56.6625 578.52C56.6625 576.64 57.2892 575.053 58.5425 573.76C59.7958 572.467 61.3492 571.82 63.2025 571.82C65.0558 571.82 66.6092 572.467 67.8625 573.76C69.1158 575.053 69.7425 576.64 69.7425 578.52C69.7425 580.387 69.1158 581.967 67.8625 583.26C66.6092 584.553 65.0558 585.2 63.2025 585.2ZM63.2025 572.64C61.6025 572.64 60.2692 573.207 59.2025 574.34C58.1492 575.473 57.6225 576.867 57.6225 578.52C57.6225 580.16 58.1492 581.547 59.2025 582.68C60.2692 583.8 61.6025 584.36 63.2025 584.36C64.8158 584.36 66.1492 583.8 67.2025 582.68C68.2558 581.547 68.7825 580.16 68.7825 578.52C68.7825 576.867 68.2558 575.473 67.2025 574.34C66.1492 573.207 64.8158 572.64 63.2025 572.64ZM79.7516 585V572.08C80.8982 571.987 81.8716 571.94 82.6716 571.94C83.8982 571.94 84.9116 572.26 85.7116 572.9C86.5116 573.527 86.9116 574.427 86.9116 575.6C86.9116 576.387 86.6849 577.113 86.2316 577.78C85.7782 578.447 85.2649 578.987 84.6916 579.4C86.2782 581.507 87.2582 582.767 87.6316 583.18C88.3916 583.967 89.2182 584.413 90.1116 584.52L90.0916 585.14C89.3449 585.127 88.7382 585.02 88.2716 584.82C87.8049 584.607 87.3382 584.253 86.8716 583.76C86.4182 583.267 85.4116 581.94 83.8516 579.78C82.7716 579.78 81.7116 579.747 80.6716 579.68V585H79.7516ZM83.3516 579.02C83.8716 579.02 84.4316 578.673 85.0316 577.98C85.6316 577.287 85.9316 576.48 85.9316 575.56C85.9316 574.64 85.6182 573.94 84.9916 573.46C84.3649 572.98 83.5516 572.74 82.5516 572.74C82.0182 572.74 81.3916 572.767 80.6716 572.82V578.92C81.6316 578.987 82.5249 579.02 83.3516 579.02ZM99.302 572.84H94.902V572.02H104.602V572.84H100.202V585H99.302V572.84ZM113.314 585V572.08C114.461 571.987 115.434 571.94 116.234 571.94C117.461 571.94 118.474 572.26 119.274 572.9C120.074 573.527 120.474 574.427 120.474 575.6C120.474 576.387 120.247 577.113 119.794 577.78C119.341 578.447 118.827 578.987 118.254 579.4C119.841 581.507 120.821 582.767 121.194 583.18C121.954 583.967 122.781 584.413 123.674 584.52L123.654 585.14C122.907 585.127 122.301 585.02 121.834 584.82C121.367 584.607 120.901 584.253 120.434 583.76C119.981 583.267 118.974 581.94 117.414 579.78C116.334 579.78 115.274 579.747 114.234 579.68V585H113.314ZM116.914 579.02C117.434 579.02 117.994 578.673 118.594 577.98C119.194 577.287 119.494 576.48 119.494 575.56C119.494 574.64 119.181 573.94 118.554 573.46C117.927 572.98 117.114 572.74 116.114 572.74C115.581 572.74 114.954 572.767 114.234 572.82V578.92C115.194 578.987 116.087 579.02 116.914 579.02ZM132.61 580.5L130.75 585H129.81L135.25 571.94H135.79L141.27 585H140.25L138.37 580.5H132.61ZM135.47 573.42C135.27 574.02 135.09 574.52 134.93 574.92L132.93 579.72H138.05L136.07 574.94C135.764 574.193 135.564 573.687 135.47 573.42ZM149.904 585V572.02H150.824V585H149.904ZM163.947 572.84H159.547V572.02H169.247V572.84H164.847V585H163.947V572.84Z" fill="black"/>
<path d="M40.0814 585V570.78C41.1881 570.673 42.2614 570.62 43.3014 570.62C44.7014 570.62 45.8214 570.947 46.6614 571.6C47.5147 572.253 47.9414 573.24 47.9414 574.56C47.9414 575.867 47.3614 576.947 46.2014 577.8C45.0547 578.64 43.6814 579.06 42.0814 579.06C42.0147 579.06 41.9414 579.06 41.8614 579.06V578.4C41.9147 578.4 41.9614 578.4 42.0014 578.4C43.3214 578.4 44.4681 578.053 45.4414 577.36C46.4147 576.667 46.9014 575.767 46.9014 574.66C46.9014 573.54 46.5614 572.733 45.8814 572.24C45.2014 571.733 44.2881 571.48 43.1414 571.48C42.5414 571.48 41.8414 571.507 41.0414 571.56V585H40.0814ZM63.2025 585.2C61.3492 585.2 59.7958 584.553 58.5425 583.26C57.2892 581.967 56.6625 580.387 56.6625 578.52C56.6625 576.64 57.2892 575.053 58.5425 573.76C59.7958 572.467 61.3492 571.82 63.2025 571.82C65.0558 571.82 66.6092 572.467 67.8625 573.76C69.1158 575.053 69.7425 576.64 69.7425 578.52C69.7425 580.387 69.1158 581.967 67.8625 583.26C66.6092 584.553 65.0558 585.2 63.2025 585.2ZM63.2025 572.64C61.6025 572.64 60.2692 573.207 59.2025 574.34C58.1492 575.473 57.6225 576.867 57.6225 578.52C57.6225 580.16 58.1492 581.547 59.2025 582.68C60.2692 583.8 61.6025 584.36 63.2025 584.36C64.8158 584.36 66.1492 583.8 67.2025 582.68C68.2558 581.547 68.7825 580.16 68.7825 578.52C68.7825 576.867 68.2558 575.473 67.2025 574.34C66.1492 573.207 64.8158 572.64 63.2025 572.64ZM79.7516 585V572.08C80.8982 571.987 81.8716 571.94 82.6716 571.94C83.8982 571.94 84.9116 572.26 85.7116 572.9C86.5116 573.527 86.9116 574.427 86.9116 575.6C86.9116 576.387 86.6849 577.113 86.2316 577.78C85.7782 578.447 85.2649 578.987 84.6916 579.4C86.2782 581.507 87.2582 582.767 87.6316 583.18C88.3916 583.967 89.2182 584.413 90.1116 584.52L90.0916 585.14C89.3449 585.127 88.7382 585.02 88.2716 584.82C87.8049 584.607 87.3382 584.253 86.8716 583.76C86.4182 583.267 85.4116 581.94 83.8516 579.78C82.7716 579.78 81.7116 579.747 80.6716 579.68V585H79.7516ZM83.3516 579.02C83.8716 579.02 84.4316 578.673 85.0316 577.98C85.6316 577.287 85.9316 576.48 85.9316 575.56C85.9316 574.64 85.6182 573.94 84.9916 573.46C84.3649 572.98 83.5516 572.74 82.5516 572.74C82.0182 572.74 81.3916 572.767 80.6716 572.82V578.92C81.6316 578.987 82.5249 579.02 83.3516 579.02ZM99.302 572.84H94.902V572.02H104.602V572.84H100.202V585H99.302V572.84ZM113.314 585V572.08C114.461 571.987 115.434 571.94 116.234 571.94C117.461 571.94 118.474 572.26 119.274 572.9C120.074 573.527 120.474 574.427 120.474 575.6C120.474 576.387 120.247 577.113 119.794 577.78C119.341 578.447 118.827 578.987 118.254 579.4C119.841 581.507 120.821 582.767 121.194 583.18C121.954 583.967 122.781 584.413 123.674 584.52L123.654 585.14C122.907 585.127 122.301 585.02 121.834 584.82C121.367 584.607 120.901 584.253 120.434 583.76C119.981 583.267 118.974 581.94 117.414 579.78C116.334 579.78 115.274 579.747 114.234 579.68V585H113.314ZM116.914 579.02C117.434 579.02 117.994 578.673 118.594 577.98C119.194 577.287 119.494 576.48 119.494 575.56C119.494 574.64 119.181 573.94 118.554 573.46C117.927 572.98 117.114 572.74 116.114 572.74C115.581 572.74 114.954 572.767 114.234 572.82V578.92C115.194 578.987 116.087 579.02 116.914 579.02ZM132.61 580.5L130.75 585H129.81L135.25 571.94H135.79L141.27 585H140.25L138.37 580.5H132.61ZM135.47 573.42C135.27 574.02 135.09 574.52 134.93 574.92L132.93 579.72H138.05L136.07 574.94C135.764 574.193 135.564 573.687 135.47 573.42ZM149.904 585V572.02H150.824V585H149.904ZM163.947 572.84H159.547V572.02H169.247V572.84H164.847V585H163.947V572.84Z" fill="black"/>
<line x1="-1.01261e-09" y1="578.5" x2="26" y2="578.5" stroke="#705245"/>
<line y1="841.5" x2="390" y2="841.5" stroke="white" stroke-width="5"/>
<circle cx="194" cy="784" r="8" fill="white"/>
<path d="M150.808 755.306C150.304 755.306 149.893 755.427 149.576 755.67C149.259 755.913 149.1 756.253 149.1 756.692C149.1 757.196 149.31 757.649 149.73 758.05C150.029 758.339 150.411 758.647 150.878 758.974C151.354 759.291 151.681 759.52 151.858 759.66C152.035 759.8 152.25 759.991 152.502 760.234C152.959 760.691 153.188 761.219 153.188 761.816C153.188 762.591 152.927 763.179 152.404 763.58C151.891 763.972 151.167 764.168 150.234 764.168C149.31 764.168 148.535 763.925 147.91 763.44L148.246 762.95C148.881 763.379 149.553 763.594 150.262 763.594C150.971 763.594 151.522 763.445 151.914 763.146C152.315 762.847 152.516 762.427 152.516 761.886C152.516 761.419 152.315 760.99 151.914 760.598C151.634 760.318 151.256 760.015 150.78 759.688C150.313 759.361 149.987 759.128 149.8 758.988C149.613 758.839 149.394 758.643 149.142 758.4C148.666 757.924 148.428 757.373 148.428 756.748C148.428 756.123 148.647 755.633 149.086 755.278C149.534 754.923 150.15 754.746 150.934 754.746C151.718 754.746 152.423 754.9 153.048 755.208L152.81 755.726C152.231 755.446 151.564 755.306 150.808 755.306ZM167.039 763.552C166.339 763.944 165.364 764.14 164.113 764.14C162.872 764.14 161.775 763.692 160.823 762.796C159.88 761.9 159.409 760.789 159.409 759.464C159.409 758.129 159.82 757.014 160.641 756.118C161.472 755.222 162.54 754.774 163.847 754.774C164.902 754.774 165.933 754.937 166.941 755.264L166.773 755.796C165.802 755.497 164.799 755.348 163.763 755.348C162.727 755.348 161.854 755.745 161.145 756.538C160.445 757.322 160.095 758.288 160.095 759.436C160.095 760.575 160.501 761.545 161.313 762.348C162.134 763.151 163.082 763.552 164.155 763.552C165.228 763.552 166.12 763.403 166.829 763.104L167.039 763.552ZM173.534 764V754.956C174.337 754.891 175.018 754.858 175.578 754.858C176.437 754.858 177.146 755.082 177.706 755.53C178.266 755.969 178.546 756.599 178.546 757.42C178.546 757.971 178.388 758.479 178.07 758.946C177.753 759.413 177.394 759.791 176.992 760.08C178.103 761.555 178.789 762.437 179.05 762.726C179.582 763.277 180.161 763.589 180.786 763.664L180.772 764.098C180.25 764.089 179.825 764.014 179.498 763.874C179.172 763.725 178.845 763.477 178.518 763.132C178.201 762.787 177.496 761.858 176.404 760.346C175.648 760.346 174.906 760.323 174.178 760.276V764H173.534ZM176.054 759.814C176.418 759.814 176.81 759.571 177.23 759.086C177.65 758.601 177.86 758.036 177.86 757.392C177.86 756.748 177.641 756.258 177.202 755.922C176.764 755.586 176.194 755.418 175.494 755.418C175.121 755.418 174.682 755.437 174.178 755.474V759.744C174.85 759.791 175.476 759.814 176.054 759.814ZM189.928 764.14C188.631 764.14 187.543 763.687 186.666 762.782C185.789 761.877 185.35 760.771 185.35 759.464C185.35 758.148 185.789 757.037 186.666 756.132C187.543 755.227 188.631 754.774 189.928 754.774C191.225 754.774 192.313 755.227 193.19 756.132C194.067 757.037 194.506 758.148 194.506 759.464C194.506 760.771 194.067 761.877 193.19 762.782C192.313 763.687 191.225 764.14 189.928 764.14ZM189.928 755.348C188.808 755.348 187.875 755.745 187.128 756.538C186.391 757.331 186.022 758.307 186.022 759.464C186.022 760.612 186.391 761.583 187.128 762.376C187.875 763.16 188.808 763.552 189.928 763.552C191.057 763.552 191.991 763.16 192.728 762.376C193.465 761.583 193.834 760.612 193.834 759.464C193.834 758.307 193.465 757.331 192.728 756.538C191.991 755.745 191.057 755.348 189.928 755.348ZM201.512 764V754.914H202.156V763.412H206.328V764H201.512ZM212.439 764V754.914H213.083V763.412H217.255V764H212.439ZM223.366 764V754.914H227.608V755.474H224.01V758.778H227.258V759.324H224.01V763.412H227.748V764H223.366ZM239.887 754.914V755.222L234.539 763.412H239.957V764H233.601V763.678L238.949 755.474H233.951V754.914H239.887Z" fill="#705245"/>
<line y1="841.5" x2="26" y2="841.5" stroke="#6A6A6A" stroke-width="5"/>
<path d="M194 784L194 807" stroke="#747474" stroke-opacity="0.21" stroke-width="23" stroke-linecap="round"/>
</g>
<defs>
<filter id="filter0_d_1_2" x="-31.9438" y="118.732" width="456.451" height="188.344" filterUnits="userSpaceOnUse" color-interpolation-filters="sRGB">
<feFlood flood-opacity="0" result="BackgroundImageFix"/>
<feColorMatrix in="SourceAlpha" type="matrix" values="0 0 0 0 0 0 0 0 0 0 0 0 0 0 0 0 0 0 127 0" result="hardAlpha"/>
<feMorphology radius="1" operator="dilate" in="SourceAlpha" result="effect1_dropShadow_1_2"/>
<feOffset/>
<feGaussianBlur stdDeviation="27.75"/>
<feComposite in2="hardAlpha" operator="out"/>
<feColorMatrix type="matrix" values="0 0 0 0 0.439948 0 0 0 0 0.321895 0 0 0 0 0.271301 0 0 0 1 0"/>
<feBlend mode="normal" in2="BackgroundImageFix" result="effect1_dropShadow_1_2"/>
<feBlend mode="normal" in="SourceGraphic" in2="effect1_dropShadow_1_2" result="shape"/>
</filter>
<clipPath id="clip0_1_2">
<rect width="390" height="844" fill="white"/>
</clipPath>
</defs>
</svg>
