<svg xmlns="http://www.w3.org/2000/svg" xmlns:xlink="http://www.w3.org/1999/xlink" width="500" zoomAndPan="magnify" viewBox="0 0 375 374.999991" height="500" preserveAspectRatio="xMidYMid meet" version="1.0"><defs><clipPath id="a7089d50ea"><path d="M 38 38 L 337.5 38 L 337.5 337.5 L 38 337.5 Z M 38 38 " clip-rule="nonzero"/></clipPath></defs><g clip-path="url(#a7089d50ea)"><path fill="#000000" d="M 336.019531 331.5625 C 326.15625 325.152344 316.910156 318.105469 307.117188 310.640625 C 286.4375 294.882812 265.058594 278.589844 237.984375 269.179688 C 229.539062 266.242188 213.316406 262.644531 201.371094 260.171875 C 233.152344 250.164062 260.242188 225.460938 277.226562 209.949219 C 280.210938 207.226562 282.878906 204.789062 285.203125 202.773438 C 291.054688 197.695312 295.648438 192.945312 299.242188 188.433594 C 304.71875 191.777344 318.761719 200.296875 332.652344 208.234375 C 333.160156 208.527344 333.710938 208.664062 334.265625 208.664062 C 335.390625 208.664062 336.488281 208.074219 337.09375 207.023438 C 337.984375 205.464844 337.441406 203.476562 335.878906 202.585938 C 322.40625 194.886719 308.78125 186.628906 303.058594 183.136719 C 308.984375 173.683594 309.648438 165.375 305.121094 157.757812 C 301.929688 152.378906 298.738281 149.367188 296.175781 147.640625 C 300.914062 141.832031 300.960938 135.003906 296.222656 126.894531 C 293.894531 122.910156 290.933594 118.800781 287.066406 116.519531 C 289.144531 113.296875 290 108.683594 289.304688 103.476562 C 288.402344 96.738281 284.734375 88.265625 277.132812 84.691406 C 276.082031 84.199219 274.851562 83.914062 273.546875 83.722656 C 275.675781 78.820312 276.570312 71.84375 272.207031 64.171875 C 263.5625 48.964844 242.601562 51.917969 227.769531 55.648438 C 223.863281 51.078125 212.878906 39.152344 203.707031 38.238281 C 197.652344 37.636719 190.554688 42.292969 187.367188 44.671875 C 175.53125 38.59375 165.332031 40.03125 161.453125 40.972656 C 155.472656 42.425781 149.675781 46.804688 143.53125 51.4375 C 137.351562 56.105469 130.953125 60.929688 125.171875 61.820312 C 120.378906 62.558594 116.964844 64.582031 115.023438 67.835938 C 113.839844 69.820312 113.4375 71.90625 113.378906 73.730469 C 108.3125 72.886719 100.425781 72.949219 94.082031 79.289062 C 89.175781 84.195312 83.703125 92.671875 84.445312 100.402344 C 84.625 102.238281 85.1875 103.917969 86.03125 105.449219 C 82.199219 106.75 78.917969 109.074219 76.523438 112.757812 C 71.121094 121.058594 69.1875 127.441406 70.445312 132.839844 C 71.148438 135.875 72.855469 138.503906 75.566406 140.824219 C 75.300781 141.058594 74.949219 141.214844 74.710938 141.476562 C 70.117188 146.550781 67.785156 154.34375 69.03125 160.425781 C 69.375 162.113281 70.046875 163.589844 70.902344 164.914062 C 62.296875 171.890625 61.949219 183.269531 63.449219 190.367188 L 39.605469 206.085938 C 38.105469 207.074219 37.691406 209.09375 38.683594 210.59375 C 39.308594 211.542969 40.34375 212.058594 41.398438 212.058594 C 42.015625 212.058594 42.636719 211.882812 43.191406 211.519531 L 68.277344 194.984375 C 68.855469 194.757812 69.371094 194.410156 69.714844 193.804688 C 69.746094 193.785156 72.289062 191.488281 82.8125 193.738281 C 89.882812 195.238281 95.792969 194.304688 100.425781 190.972656 C 104.738281 187.863281 106.847656 183.382812 107.878906 180.171875 C 111.28125 181.269531 114.398438 181.792969 117.085938 181.792969 C 120.695312 181.792969 123.59375 180.96875 125.589844 179.769531 C 128.144531 178.238281 135.90625 169.640625 135.261719 160.859375 C 135.160156 159.519531 134.832031 157.996094 134.117188 156.453125 C 137.382812 155.710938 141.195312 153.839844 143.898438 149.304688 C 148.742188 141.179688 148.253906 133.710938 142.617188 126.695312 C 152.625 122.027344 154.5 110.417969 153.953125 104.523438 C 153.78125 102.734375 152.140625 101.425781 150.414062 101.582031 C 148.621094 101.753906 147.304688 103.335938 147.46875 105.125 C 147.484375 105.257812 148.5625 118.207031 138.511719 121.464844 C 138.25 121.550781 138.046875 121.714844 137.824219 121.851562 C 135.839844 120.183594 133.660156 118.53125 131.042969 116.914062 C 119.324219 109.660156 104.996094 103.800781 93.40625 104.160156 C 92 102.980469 91.097656 101.582031 90.921875 99.78125 C 90.433594 94.683594 94.601562 87.96875 98.683594 83.886719 C 104.1875 78.390625 111.652344 79.796875 114.644531 80.664062 C 116.957031 87.417969 123.984375 97.785156 138.019531 98.054688 C 138.21875 98.058594 138.40625 98.058594 138.597656 98.058594 C 146.890625 98.058594 153.144531 94.6875 158.675781 91.703125 C 165.40625 88.0625 169.476562 86.132812 174.707031 88.660156 C 175.789062 89.183594 177.089844 89.0625 178.050781 88.347656 C 178.3125 88.152344 204.207031 69.109375 221.054688 64.238281 C 240.546875 58.597656 259.554688 55.070312 266.550781 67.386719 C 271.125 75.429688 267.71875 81.554688 266.089844 83.785156 C 253.582031 85.402344 237.792969 92.925781 235.488281 94.050781 C 233.875 94.839844 233.207031 96.785156 233.996094 98.398438 C 234.789062 100.019531 236.726562 100.683594 238.347656 99.898438 C 246.164062 96.085938 258.601562 91.25 267.125 90.144531 C 267.710938 90.25 268.3125 90.238281 268.871094 90.019531 C 271.101562 89.871094 273.054688 89.96875 274.363281 90.582031 C 279.597656 93.042969 282.210938 99.53125 282.851562 104.339844 C 283.417969 108.597656 282.617188 112.464844 280.851562 113.964844 C 280.570312 114.203125 280.375 114.496094 280.199219 114.792969 C 278.902344 114.867188 277.550781 115.082031 276.089844 115.609375 C 269.246094 118.050781 254.304688 126.128906 253.671875 126.472656 C 252.09375 127.328125 251.503906 129.300781 252.359375 130.882812 C 253.210938 132.472656 255.195312 133.042969 256.769531 132.191406 C 256.925781 132.113281 271.902344 124.015625 278.277344 121.734375 C 282.148438 120.347656 285.402344 121.285156 290.605469 130.183594 C 294.972656 137.652344 294.113281 142.195312 287.441406 146.949219 C 280.464844 151.921875 262.222656 162.375 262.039062 162.476562 C 260.476562 163.371094 259.9375 165.359375 260.832031 166.921875 C 261.429688 167.96875 262.527344 168.558594 263.652344 168.558594 C 264.207031 168.558594 264.757812 168.421875 265.269531 168.128906 C 266.03125 167.691406 283.972656 157.410156 291.214844 152.25 C 292.828125 153.027344 296.027344 155.175781 299.527344 161.078125 C 303.296875 167.417969 304.585938 177.332031 280.933594 197.859375 C 278.574219 199.90625 275.867188 202.378906 272.835938 205.144531 C 254.101562 222.25 222.753906 250.878906 187.277344 256.953125 C 186.78125 257.039062 186.289062 257.183594 185.792969 257.28125 C 185.585938 257.304688 185.394531 257.347656 185.195312 257.410156 C 165.199219 261.371094 145.660156 272.832031 123.148438 286.113281 C 99.597656 300.015625 72.898438 315.769531 40.476562 325.367188 C 38.753906 325.878906 37.769531 327.6875 38.277344 329.414062 C 38.695312 330.828125 39.992188 331.742188 41.398438 331.742188 C 41.703125 331.742188 42.015625 331.699219 42.320312 331.609375 C 75.511719 321.785156 102.578125 305.808594 126.453125 291.71875 C 148.410156 278.761719 167.472656 267.582031 186.355469 263.8125 C 191.53125 264.804688 223.308594 270.964844 235.851562 275.324219 C 261.9375 284.398438 282.898438 300.371094 303.167969 315.816406 C 312.625 323.023438 322.40625 330.472656 332.472656 337.019531 C 333.019531 337.375 333.636719 337.542969 334.246094 337.542969 C 335.308594 337.542969 336.347656 337.023438 336.972656 336.0625 C 337.949219 334.558594 337.523438 332.542969 336.019531 331.5625 Z M 96.578125 185.71875 C 93.503906 187.910156 89.316406 188.46875 84.175781 187.371094 C 77.09375 185.867188 72.472656 186.078125 69.480469 186.878906 C 68.886719 182.015625 69.179688 173.917969 75.902344 169.261719 C 76.0625 169.328125 76.226562 169.390625 76.394531 169.429688 C 76.550781 169.46875 92.21875 173.117188 101.835938 177.730469 C 101.167969 180.003906 99.691406 183.496094 96.578125 185.71875 Z M 122.246094 174.1875 C 120.097656 175.476562 114.0625 176.484375 105.140625 172.089844 C 95.605469 167.402344 80.800781 163.785156 78.226562 163.175781 C 76.726562 162.390625 75.796875 161.0625 75.402344 159.121094 C 74.570312 155.070312 76.351562 149.363281 79.542969 145.839844 C 80.921875 144.304688 88.179688 140.410156 122.875 154.832031 C 128.394531 157.125 128.667969 160.207031 128.761719 161.214844 C 129.230469 166.480469 123.792969 173.191406 122.246094 174.1875 Z M 127.609375 122.449219 C 145.671875 133.625 140.695312 141.964844 138.308594 145.972656 C 135.109375 151.335938 129.039062 150.363281 128.792969 150.324219 L 128.742188 150.601562 C 127.753906 149.96875 126.675781 149.359375 125.378906 148.820312 C 104.796875 140.269531 90.761719 136.753906 82.203125 138.011719 L 82.371094 137.730469 C 79.117188 135.785156 77.34375 133.765625 76.785156 131.371094 C 75.96875 127.859375 77.667969 122.929688 81.976562 116.304688 C 89.015625 105.480469 110.566406 111.890625 127.609375 122.449219 Z M 175.6875 82.019531 C 168.074219 79.253906 161.710938 82.660156 155.585938 85.976562 C 150.382812 88.78125 144.6875 91.625 138.148438 91.546875 C 124.066406 91.277344 120.539062 77.875 120.296875 76.992188 C 120.285156 76.957031 119.179688 73.574219 120.613281 71.167969 C 121.511719 69.664062 123.378906 68.679688 126.164062 68.25 C 133.566406 67.113281 140.625 61.785156 147.453125 56.632812 C 153.042969 52.414062 158.320312 48.429688 162.988281 47.296875 C 164.578125 46.910156 166.796875 46.542969 169.484375 46.542969 C 177.5 46.542969 189.664062 49.820312 201.578125 65.671875 C 190.246094 71.777344 179.570312 79.238281 175.6875 82.019531 Z M 207.394531 62.695312 C 207.304688 62.503906 207.195312 62.320312 207.0625 62.140625 C 202.546875 56.0625 197.921875 51.632812 193.410156 48.378906 C 196.546875 46.347656 200.40625 44.476562 203.066406 44.714844 C 207.957031 45.203125 215.449219 51.808594 220.75 57.554688 C 220.246094 57.699219 219.71875 57.851562 219.25 57.984375 C 215.539062 59.058594 211.5 60.722656 207.394531 62.695312 Z M 207.394531 62.695312 " fill-opacity="1" fill-rule="nonzero"/></g></svg>